<svg version="1.1" id="Layer_1" xmlns="http://www.w3.org/2000/svg" xmlns:xlink="http://www.w3.org/1999/xlink" x="0px" y="0px"
	 width="1024px" height="1024px" viewBox="0 0 1024 1024" style="enable-background:new 0 0 1024 1024;" xml:space="preserve">
<g transform="translate(0.000000,1024.000000) scale(0.100000,-0.100000)">
	<path d="M3255,9936c-38-13-112-44-162-69c-70-36-104-47-138-47c-29,0-60-8-84-22c-32-18-40-30-47-65l-9-44l-57,36
		c-53,34-64,37-140,38c-46,1-91-2-100-6c-13-7-20-1-33,22l-16,31h-91h-91l84-60l84-60l-4-80c-3-75-1-84,24-120c23-32,26-45,20-78
		c-7-44-11-42,110-57c28-4,56-8,63-10c19-7-70-83-114-99c-29-10-40-20-44-40c-3-14-18-42-34-62l-28-36l-25,24l-25,23l-30-37
		c-16-21-56-52-88-69c-40-21-69-47-96-84c-41-56-54-60-54-19c0,31-4,30-85-6c-76-34-63-38-159,47c-52,47-65,53-103,53h-43v56
		c0,51-4,61-46,115c-51,67-47,67-137,1l-49-35l-36,19c-20,10-40,20-44,22c-5,2-8-5-8-16c0-28-77-36-247-27l-133,7l-20-46
		c-10-25-22-69-26-96l-7-50l44-1c24,0,64-8,89-17c38-15,46-23,53-55c5-21,7-41,4-44s-21,4-39,15l-33,20l-72-33l-73-34v-96v-96l59-54
		c52-49,62-65,91-146l33-91l-22-62c-18-49-24-99-33-251l-10-190l-48-125c-32-84-53-124-62-122c-7,2-37,6-67,9c-42,5-57,3-65-9
		c-16-22-111-68-140-68c-75,0-254-58-296-96c-14-12-57-43-97-68c-77-49-87-70-82-156c2-24-6-48-25-77l-28-42l17-58l17-58l-24-14
		c-12-8-44-37-70-63c-37-36-48-55-48-79c0-22,5-32,20-36c27-7,25-16-8-31c-67-29-99-97-50-104c17-2,24-12,28-38
		c7-43,139-243,188-286l36-31l-27-46c-15-25-27-48-27-51s31-6,69-6s92-5,120-12c46-10,51-14,51-38c0-15,7-34,16-41s20-23,24-35
		c9-23,51-34,135-34c47,1,56,5,155,80c57,44,110,80,116,80s17-7,24-15c10-12,8-25-10-69c-21-50-22-59-11-130c6-42,11-97,11-121
		c0-39,4-46,30-60c40-21,60-19,102,10c35,24,44,25,175,25c76,0,152-4,168-8c48-14,110,7,140,47c14,21,43,42,68,51c23,9,71,37,106,63
		s74,47,87,47c14,0,30,10,41,26c23,36,83,72,166,100c55,19,92,24,168,24c113,0,117-4,93-93c-19-70-18-137,2-166c12-17,15-35,10-68
		c-3-25-2-62,4-82c5-20,12-48,15-63c4-21,15-30,54-43c33-11,58-28,76-51c17-22,34-34,50-34c20,0,25-7,31-35c6-31,9-35,51-41
		c25-4,76-4,114-1c53,4,70,2,80-9c23-28,68-45,88-35c14,8,24,4,46-19c16-17,36-30,45-30s31-11,50-25c25-18,46-25,82-25
		c43,0,48-3,54-25c3-14,20-36,38-49c27-20,47-24,146-30c146-8,162-11,205-50c29-25,36-41,43-86c6-40,20-73,50-117c28-42,42-73,42-95
		c0-33,0-33-45-30c-41,4-45,2-51-23c-5-20,0-34,23-63c22-27,31-52,35-92c4-30,14-74,23-97l17-43l157-1c86-1,183,0,217,1
		c72,2,83-10,59-67c-9-20-15-66-15-107v-71l73-47c39-26,84-52,100-59c38-17,50-69,49-206v-113l-40-47c-38-46-82-158-82-210
		c0-35,41-178,61-209c24-39,25-105,2-189c-14-54-15-68-4-88c10-18,10-30,2-45c-19-35-13-40,58-52c59-11,75-11,116,4
		c45,15,50,15,66,0c17-15,20-15,45,5c27,22,44,20,44-5c0-10,14-14,56-14c48,0,62-5,95-31c22-17,44-41,51-52c21-39,48-161,54-245
		c7-78,9-84,36-98c25-13,36-13,108,4l81,19l18-23c50-64,48-164-8-311c-30-80-30-83-11-93c10-5,32-10,48-10s50-9,74-20
		c65-29,78-68,77-235c0-129,0-130-27-151c-15-11-54-31-87-44c-36-14-85-46-124-79c-34-31-88-77-120-102c-118-97-228-213-241-254
		c-7-22-35-66-61-98c-27-32-56-72-66-88s-26-32-38-35c-11-4-36-19-56-35c-30-23-35-33-31-58c3-24,10-31,35-37c26-5,34-2,54,22
		c29,37,78,35,108-4c11-15,48-55,82-90c35-34,63-71,63-81s8-25,19-35c16-15,19-15,31-1c7,9,22,21,33,27c18,9,28,2,82-56
		c51-55,67-66,94-66s44-12,107-78c41-42,77-80,81-84c5-4,50-48,102-98c82-79,169-140,200-140c5,0,20,17,32,38c12,20,64,80,114,132
		c51,52,107,118,125,145c19,28,65,88,104,135c114,136,127,156,143,216c19,74,80,159,184,259c88,84,209,228,209,248c0,7,16,45,35,85
		c33,69,34,75,20,102c-8,16-15,46-15,66c0,21-7,60-16,88c-16,51-15,52,21,171c54,178,82,224,174,289c42,30,110,87,151,128
		c96,94,154,131,256,165l82,26l62-26c34-15,66-27,71-27s18,14,28,31c15,24,17,38,10,57c-5,14-8,27-5,29c2,3,36,15,75,27
		c70,22,71,23,51,41c-27,25-17,35,37,35c32,0,50-5,59-17c12-17,17-14,63,32l51,49v-36v-36l163-6c89-4,191-8,227-9l65-2l10,61
		c13,78,36,105,115,133c87,31,130,78,130,142c0,38,5,50,34,78c22,21,36,46,40,71c5,32,17,47,85,101c71,58,81,69,96,121
		c14,45,24,60,51,74c28,15,40,34,73,114c28,66,41,115,44,160c8,116,35,189,88,241l47,46l16,134c9,81,28,176,47,239
		c29,95,33,122,39,290c6,157,12,206,39,325c18,77,43,165,55,195l22,55l56,5l57,5l63,85c66,87,146,216,191,306c15,29,48,70,80,97
		c31,26,72,69,91,96c31,41,45,51,87,62c44,12,58,23,127,101c204,234,233,273,294,393c117,230,134,303,93,404c-14,36-25,84-25,107
		c0,77-22,198-42,233c-10,19-22,63-25,99c-6,63-8,67-65,124l-58,58h-107c-241,1-429,93-560,277c-38,54-57,70-117,99
		c-46,24-95,60-141,105c-65,63-77,71-173,104c-102,35-109,36-320,45c-130,5-241,15-277,24c-33,8-84,15-113,16c-40,0-70,9-124,36
		c-39,20-101,42-138,50c-38,7-74,16-82,19s-23-7-36-25c-19-25-29-30-66-30c-40,0-47-4-81-46l-38-46l-13,23c-12,22-9,27,27,64
		c21,23,39,48,39,56s-20,30-44,48c-37,28-46,41-53,80s-14,49-43,63c-23,12-48,16-72,13c-32-4-47,1-102,39c-35,24-81,49-103,56
		c-21,7-92,37-158,68l-120,56l-133,4l-133,4l-30-28c-17-16-51-60-77-98c-50-73-98-106-152-106h-30l75,104c93,127,103,157,72,203
		c-26,39-59,52-147,60c-76,6-167,53-172,87c-3,18-11,21-60,24c-53,3-57,5-72,36c-22,47-20,66,7,66c42,0,48,11,37,71
		c-7,38-7,72,0,109c10,54,10,56-17,77c-16,13-42,23-59,23c-29,0-32,3-37,38c-4,21-13,46-21,57c-13,18-15,18-41,1c-15-10-29-16-31-13
		c-3,2-9,32-15,66c-6,37-22,81-39,110c-23,37-30,60-30,102c-1,143-58,259-127,259c-27,0-45-10-85-47c-63-60-171-267-183-351
		c-6-44-14-59-47-90l-39-37l-111,9c-79,7-126,6-167-2c-32-7-83-12-115-12c-51,0-64,4-107,35l-48,36l-67-12c-37-6-94-9-127-5
		c-48,5-64,3-79-11c-22-20-23-64-2-105c23-44,8-50-122-45c-90,2-117,7-146,24l-36,21l-58-48c-48-39-87-58-199-99
		c-167-61-199-63-269-18c-28,19-65,42-83,52c-35,20-43,39-43,105c0,25-7,70-15,100s-14,78-13,106c1,39-4,59-20,82l-22,30l50,42
		c48,41,50,43,50,95c0,50-2,55-39,84c-30,24-49,31-81,31c-33,0-50,7-77,30C3411,9967,3358,9969,3255,9936z"/>
</g>
</svg>
