<svg version="1.1" id="Layer_1" xmlns="http://www.w3.org/2000/svg" xmlns:xlink="http://www.w3.org/1999/xlink" x="0px" y="0px"
	 width="1024px" height="1024px" viewBox="0 0 1024 1024" style="enable-background:new 0 0 1024 1024;" xml:space="preserve">
<g transform="translate(0.000000,1024.000000) scale(0.100000,-0.100000)">
	<path d="M4805,9979c-192-43-280-74-360-127l-55-36v-53c0-30-7-70-15-90c-21-49-19-80,9-140c19-39,21-53,11-56c-15-6-45-90-45-128
		c0-15,5-29,11-31c8-3,7-14-5-35c-23-45-20-54,24-87c78-58,118-146,66-146c-14,0-28,5-31,10c-4,6-27,21-52,34l-46,23l-60-64
		c-63-66-196-182-234-202c-12-6-41-11-65-10s-61-6-84-14c-22-8-53-13-67-10c-54,11-116-7-183-53c-36-25-88-54-116-65s-64-29-79-40
		c-40-28-93-140-93-197l-1-46l99-18c91-16,128-30,115-43c-3-2-49-13-102-24c-70-14-125-34-198-70c-59-30-116-51-134-51
		s-70,18-116,39c-103,48-164,61-279,61c-64,0-96,5-117,17c-39,22-83,11-83-20c0-38-12-45-67-40c-47,5-53,8-53,28c0,12,7,36,16,54
		c15,31,15,33-20,97c-20,35-36,72-36,81c0,10,14,32,31,49c25,25,30,38,25,58c-9,36-56,42-130,16c-33-11-73-20-90-20
		c-38,0-152,35-185,57c-23,15-24,15-16-8c4-13,14-82,23-154l15-130l73-78c80-85,92-110,75-158c-6-18-8-55-5-85c6-44,10-54,25-54
		c25,0,24-23-2-165c-26-135-21-151,58-205c59-39,68-66,26-76c-83-18-104-26-113-44c-10-18-13-19-33-6c-12,8-53,20-92,26
		c-90,16-113,30-117,75l-3,36l-35-30l-35-29l18-51c19-54,16-83-11-113c-14-17-52-25-52-12c0,4,5,24,11,45c10,33,9,42-10,73
		c-13,20-27,36-31,36c-5,0-20-11-34-25c-31-31-49-32-73-2c-10,12-25,22-33,22c-10,0-15,9-15,27c1,23-2,25-18,17c-10-6-28-9-40-7
		c-14,2-30-7-45-24c-13-15-48-41-78-58c-29-17-54-36-54-41s-8-9-18-9c-13,0-34,29-72,98c-114,208-122,218-174,213c-28-3-29-2-23,34
		c6,35,5,36-12,21c-23-21-41-20-56,1c-11,15-17,14-64-16c-36-23-58-31-75-27c-20,5-24,1-35-34c-21-70-102-106-134-60
		c-8,11-27,23-44,26c-26,5-32,2-51-30c-23-38-36-43-76-25c-16,8-26,23-31,46c-5,28-10,33-23,27c-54-23-142-52-174-58
		c-31-6-38-4-38,10c0,11-5,14-16,10c-9-3-34-9-57-12c-23-4-53-15-67-24c-31-21-86-40-115-40c-19,0-23-7-29-46c-3-26-6-66-6-90
		c0-43,1-44,33-44c17,0,83,11,145,23c105,21,112,22,112,5c0-9-10-23-22-29c-21-11-20-12,12-25c25-11,31-19,27-34s0-20,16-20
		c31,0,44-11,57-44c8-21,7-32-1-42c-16-20-31-17-73,11c-36,24-134,55-175,55c-17,0-21-6-21-30c0-30,0-30,25-14c24,15,28,15,68,0
		c64-25,85-46,93-93c8-54-3-59-139-72c-59-6-118-13-133-17c-38-10-10-24,48-24c45,0,49-3,73-40c14-22,37-69,52-106
		c26-62,26-67,10-79c-16-11-16-13-1-19c8-3,38-6,66-6h50l-6,34c-5,25-3,35,9,40c8,3,15,18,15,34c0,34,16,52,47,52c16,0,23-6,23-19
		c0-11-4-23-10-26c-19-12-10-34,18-49c26-14,30-13,45,5c24,28,32,24,65-29c24-39,38-51,73-61c70-21,162-66,192-94l27-26v34v34l43-18
		c32-14,42-24,43-42c1-47,3-50,32-47c22,2,28,8,30,36c4,40,28,43,66,7c37-34,34-60-12-84c-29-15-29-41,1-41c13,0,28-5,34-11
		c18-18,58-7,61,18c2,12,9,27,17,33c11,9,17,6,28-16c14-26,19-28,83-28c66-1,69-2,79-30c8-24,6-31-16-50l-26-22l76-1
		c51,0,88-6,109-17c34-17,42-43,17-52c-11-5-12-10-3-24c11-18,8-26-36-85c-5-6-6-32-2-56l7-44l64-16l65-16l29,32c43,49,66,58,130,51
		c61-7,77-16,134-70c40-38,99-59,194-71c48-6,52-9,43-26c-20-37-47-42-122-24c-49,13-92,33-144,68c-53,35-87,51-119,55
		c-55,6-73-7-73-52c0-19-3-42-6-53c-5-15,1-22,30-32c37-13,134-99,134-118c0-6-11-14-24-17c-29-7-126-134-126-164c0-11,17-42,37-69
		c20-26,54-70,75-98c21-27,46-79,57-115c15-50,30-75,63-106c49-48,106-79,161-87c20-3,50-15,65-26c41-29,82-37,82-17
		c0,29,30,17,47-20c14-28,21-34,38-29c40,13,58,10,77-16c27-36,17-63-38-95c-40-24-43-28-31-43c26-29,97-180,97-206c0-18-5-25-20-25
		c-17,0-18-3-10-26c18-45,12-71-16-78c-30-8-27-28,13-90c34-52,15-65-45-30c-49,29-57,27-48-10c4-17,21-33,51-48
		c54-28,225-211,255-274c14-28,25-78,30-141c13-138,24-170,86-247c30-37,54-74,54-81c0-19-13-25-30-15c-11,7-18-1-30-33
		c-9-23-20-42-25-42s-13,19-17,43c-4,25-20,58-39,81c-36,43-65,129-78,237c-7,63-15,80-63,150c-100,146-113,163-125,164
		c-24,0-44-48-53-126c-13-118-29-206-61-339c-16-66-34-165-39-220c-6-55-14-125-19-155s-8-56-6-58s10,21,19,52c16,53,36,76,69,76
		c20,0,117-101,117-123c0-52-42-71-105-47c-17,7-33,7-45,0c-29-15-57-104-79-251c-11-74-47-253-80-399c-32-146-62-285-66-309
		c-18-129-164-311-250-311c-18,0-18,1-4-39c9-27,16-31,45-31c24,0,43-8,59-25l25-24v24c0,36,40,33,101-7c43-27,49-36,49-65
		c0-18-14-63-30-100c-17-36-30-70-30-74c0-5,13-9,29-9c22,0,31,6,41,30c26,63,80,63,80,0c0-46,29-85,78-106c80-35,190-64,243-64h55
		l22-45c12-25,33-63,47-85l25-40h154h153l47-59c46-57,49-59,79-50c18,5,76,12,129,16l98,6l11-33l12-33l14,27c16,30,29,32,61,11
		c15-11,40-15,84-13l63,3l-3,41c-2,23,4,58,12,78c17,42,38,46,94,17c20-10,75-27,122-36c64-13,93-24,118-47c33-28,36-28,107-22
		c89,8,125-8,125-55c0-16,8-39,18-51c16-20,21-21,41-11c18,10,42,10,113,0c96-14,108-23,108-82c0-16,9-26,29-33c18-7,39-29,56-60
		c73-128,86-133,201-83l71,31l99-40c98-40,99-40,149-25c27,8,97,39,154,69c58,30,112,54,120,54s45-16,82-35c38-19,71-35,74-35
		c4,0-3,13-14,29c-12,16-21,35-21,43s-16,29-35,48l-35,34v115c0,83,5,135,18,181c16,54,17,70,6,95c-10,25-9,35,6,66
		c12,23,15,40,9,50c-22,36-2,83,26,59c11-9,17-5,30,21c25,47,103,127,152,156c42,25,72,27,115,9c12-6,29,4,60,37
		c55,57,255,219,313,252c31,19,55,25,82,23c36-3,38-5,47-47c12-56,36-66,176-76c120-8,158-23,166-65c7-34,24-40,117-40h67v30
		c0,54,60,91,90,55c7-8,21-15,32-15c19,0,19,1,4,25c-17,26-21,82-7,104c8,12,20,9,73-17c35-18,73-32,84-32c50,0,58-69,12-103
		c-15-11-51-22-83-26c-54-6-55-7-41-26c14-20,15-20,87-1c95,24,116,23,147-7c20-20,25-36,25-71v-46h41c23,0,52-7,65-16
		c22-16,24-16,33,0c14,25,35,19,81-23c23-21,52-41,64-45s32-23,43-41c23-37,40-37,70-1c16,20,67,20,100,1c35-20,48-18,52,7
		c3,22,8,23,76,22c65,0,73,2,78,21c4,17,23,25,105,45c54,13,103,26,108,29c5,4,12,21,16,38c6,28,4,33-13,33c-11,0-26,7-33,16
		c-11,14-11,18,4,28c9,7,25,33,36,59c21,50,37,62,94,72c53,10,83,38,102,95c17,51,27,58,111,75c25,5,37,17,58,55c32,59,69,90,107,90
		c26,0,29,3,29,33c0,64,27,77,106,52c21-7,22-4,20,80c-1,85,0,87,30,115c17,15,37,29,43,31c16,6,32,142,17,151c-18,12-69,9-148-8
		c-41-8-90-13-113-9c-58,8-192,78-252,130c-70,62-90,108-96,227l-5,97l58,92c57,88,59,93,46,123c-16,39-69,76-109,76
		c-24,0-42,11-79,51c-60,64-128,165-128,191c0,30,54,78,87,78c15,0,89,23,164,52l136,53l7,70c8,79,13,72-93,138c-51,32-62,44-71,77
		c-5,22-15,58-21,81c-7,30-19,45-42,57c-17,10-44,30-60,45c-24,23-28,33-23,59c10,50,29,72,95,107c71,38,76,54,34,119
		c-20,31-38,45-64,52c-19,5-46,21-60,36c-22,24-24,33-24,132c0,69-5,115-13,130c-9,15-11,37-7,63l7,39h-56c-65,0-241-53-250-75
		c-7-19,12-75,34-100c23-26,13-51-34-93c-54-47-109-72-159-72c-27,0-49-6-57-15c-28-34-54-5-52,59c1,22,16,45,61,90
		c34,34,61,66,61,71s-10,33-22,62c-21,51-21,53-4,98c15,39,16,51,5,77c-12,30-11,32,27,66c90,81,131,120,162,156c30,35,32,41,32,117
		c0,44,4,88,10,98c9,18,42,34,93,45c15,4,27,13,27,22c0,8,24,41,53,72c66,70,132,159,142,192c4,14,17,35,28,48c20,22,20,22,1,22
		c-48,0-56,44-23,120c19,44,24,49,62,55c23,4,59,16,79,26c21,11,39,19,42,19c15,0,36-35,36-60c0-55,54-44,128,27c72,69,76,83,42,169
		l-29,71l28,135c27,131,27,135,11,184c-28,80-5,193,56,283c20,30,24,48,24,109c0,44,5,81,14,95c7,12,16,45,19,74c7,57,23,96,71,161
		c61,84,77,101,111,113c30,11,33,16,28,41c-4,21,0,35,17,53l22,23l-24,15c-159,99-201,116-340,132c-87,10-126,19-147,34
		c-37,27-45,26-99-5c-40-24-48-25-82-15c-29,8-45,8-64,0c-29-13-51-2-61,32c-9,28-81,27-88-1c-7-29-53-26-99,7
		c-36,24-110,126-180,245c-26,46-26,46-90,50c-53,4-74,0-131-25l-69-29l-82,51l-83,51l-84-25c-131-38-143-36-164,35
		c-9,30-14,35-38,32c-29-4-32,0-42,60c-5,33-11,40-63,64c-227,106-258,128-248,170c5,20,0,34-24,60c-35,41-36,52-10,136
		c24,78,24,77,0,71c-14-4-22-17-26-43c-10-60-36-93-119-149c-85-57-114-62-202-36c-98,29-133,86-75,122c15,9,29,18,30,19
		c2,1-6,16-19,33c-19,26-22,41-21,109c2,70,0,81-21,101c-29,27-77,41-139,41c-39,0-53-5-78-30c-35-35-32-33-64-19
		c-29,13-41,46-51,133c-10,84-34,106-118,106c-76,0-109,20-127,78c-7,20-30,71-52,112l-40,75l-44-4c-40-3-44-5-44-30
		c0-15-6-36-14-46c-12-17-18-15-100,44c-101,73-121,105-137,218c-12,89-18,113-27,112C4978,10018,4899,10001,4805,9979z M4551,1113
		c15-41-3-73-41-73c-28,0-30,2-30,38C4480,1141,4531,1166,4551,1113z"/>
	<path d="M10049,1898c0-2-3-28-6-58s-9-62-14-72c-14-25-11-54,6-68c18-15,13-55-11-102c-17-32-40-35-82-11c-25,14-34,15-75,3
		c-42-11-47-16-47-41c0-36-40-63-118-81c-46-10-55-16-67-45c-12-28-18-33-38-28c-15,4-28,0-40-13c-19-21-21-35-11-95
		c6-37,6-38-21-31s-28,6-22-27c4-19,20-46,37-61c16-15,30-30,30-32c0-3-20-19-44-35c-43-30-44-32-34-67c5-20,7-42,4-50
		c-3-9,1-14,13-14c24,0,74-25,94-47c8-10,18-30,22-45c5-21,2-30-14-40c-12-7-21-21-21-31s-5-28-11-39c-11-20-10-21,22-13
		c56,13,101,11,111-5c8-13-5-48-70-181c-1-3,10-4,25-2c33,5,133-41,133-62c0-7-21-31-46-53c-29-24-45-45-41-54c3-8,58-35,123-60
		c72-28,123-54,128-65c5-10,12-25,16-33s15-16,24-18c12-3,16,4,16,25c0,48,21,107,43,125c18,15,19,18,5,18c-25,0-30,16-23,61
		c7,38,9,41,35,37s29-1,40,41c7,25,15,105,19,176l7,130l47,88c26,49,47,97,47,107s-11,60-24,112c-14,51-29,146-35,211
		c-9,111-11,121-45,170l-35,52l-7,163c-6,149-8,162-25,162C10058,1900,10050,1899,10049,1898z"/>
</g>
</svg>
