<svg version="1.1" id="Layer_1" xmlns="http://www.w3.org/2000/svg" xmlns:xlink="http://www.w3.org/1999/xlink" x="0px" y="0px"
	 width="1024px" height="1024px" viewBox="0 0 1024 1024" style="enable-background:new 0 0 1024 1024;" xml:space="preserve">
<g transform="translate(0.000000,1024.000000) scale(0.100000,-0.100000)">
	<path d="M3047,10193c-74-128-89-173-90-273c-2-79,1-95,13-95s16,16,18,72c4,89,15,102,72,83c34-11,45-11,77,3c55,23,143,33,143,15
		c0-7,18-35,40-63c22-27,40-55,40-62c0-6,18-33,40-60c21-26,51-62,65-79c14-18,25-44,25-58c0-22,4-26,28-26c17,0,37-9,49-22
		c22-25,47-68,41-73c-2-1-29-10-61-19c-45-13-57-21-53-32c3-9,6-20,6-25s20-9,44-9c33,0,52,7,81,30l39,31l13-32c16-40,17-39-5-39
		c-10,0-39-13-65-30c-46-29-52-30-166-30c-104,0-120-2-136-20c-17-18-16-19,11-26c42-10,46-14,33-30c-6-8-26-14-45-14
		c-25,0-34-5-40-22c-5-18,2-29,37-59l44-37l29,21c17,12,49,22,75,24c25,1,69,4,96,6c28,1,56,7,64,11c10,7,12,5,6-5
		c-18-31-38-48-64-54c-21-5-29-16-43-58c-16-50-15-53,5-82c11-16,21-31,22-33c1-1,28,1,60,6l57,9l15-32c11-23,14-46,9-79
		c-8-50-18-55-71-32c-32,13-75,10-75-6c0-19,50-94,85-128c32-31,43-35,88-36c139-1,220-16,286-52c58-32,66-41,92-98
		c24-53,36-67,72-85c50-26,53-30,61-80c5-32,13-42,59-68c41-24,169-61,210-61c4,0,7-10,7-21c0-18-4-20-27-15c-16,3-53,10-83,15
		s-81,21-112,35c-47,21-61,33-79,68c-12,24-50,75-84,113c-34,39-74,87-90,108c-57,77-167,107-265,72c-46-16-176-19-268-6
		c-40,6-61,15-87,41c-31,30-36,32-62,21c-56-23-79-55-127-172c-25-63-46-119-46-124s17-38,39-74c55-94,57-106,27-141
		c-15-18-27-49-31-78c-4-26-9-56-12-67c-6-20-6-20-14,0c-15,39-9,103,12,140c12,19,19,41,16,48c-3,8-32,23-64,35c-33,12-70,33-83,47
		c-17,18-34,25-60,25c-31,0-38-5-52-33c-8-17-19-47-22-65c-8-32-7-32,32-32c43,0,52-10,52-59c0-18-12-38-33-59c-43-42-78-42-107-2
		c-14,20-30,30-48,30c-37,1-62,22-62,53c0,20,6,27,29,32c16,3,36,14,45,24c15,16,14,22-14,77c-24,48-36,62-65,73c-33,11-36,15-30,41
		c5,25,2,31-23,44c-24,13-49,13-158,5c-71-5-169-19-217-29c-63-14-94-17-107-10c-26,14-81,12-179-5c-89-15-128-36-201-102
		c-41-36-49-53-27-53c6,0,18-4,26-9c11-7,10-14-4-39c-16-26-21-28-36-19s-22,8-33-3c-17-19-56-136-56-171c0-42,20-51,112-49
		c147,4,142,8,108-87c-11-32-20-70-20-86c0-17-5-47-12-69c-9-29-9-41,0-50c8-8,12-49,12-114v-101l-54-84c-47-73-58-100-82-205
		l-29-122l-53-5c-30-3-65-2-79,4c-43,16-113,11-149-12c-38-23-44-51-16-82c9-11,12-17,6-14c-7,4-22-1-35-12c-21-17-22-21-11-59
		c9-29,23-47,48-62c31-20,46-22,142-19l107,4l42-45l42-46l-30-49c-27-45-29-56-25-108c6-56,4-60-25-85c-17-15-72-50-122-77
		c-72-39-96-58-109-85c-24-50-22-66,17-117c19-25,35-49,35-52c0-15-155-62-282-87c-131-25-138-28-138-50c0-13-3-24-6-24
		s-54,21-112,47c-80,36-107,44-110,34c-9-28-40-48-83-55c-24-4-60-11-80-16l-36-10l14-62c10-44,25-75,54-109c29-35,39-56,39-82
		c0-29,7-41,43-70c97-80,93-73,101-185l8-101l-82-121c-45-67-80-123-78-125s23,0,48,5s46,7,48,5s-8-26-22-53c-22-43-36-56-101-92
		c-63-35-82-41-111-36l-34,7v-54v-55l63-17c57-15,66-21,90-61c15-25,27-47,27-50c0-4-13-23-30-44c-29-37-36-71-24-117
		c5-18,14-23,56-25l50-3l23-54c20-49,56-83,110-105c6-2-10-21-34-43l-43-38l18-38c16-33,22-37,56-37c27,0,46-8,69-28l31-28l-12-57
		l-13-58l33-34l34-35h-33c-24,0-50-13-95-46c-33-26-67-49-73-51c-7-3-22-37-34-77c-31-102-22-200,25-293c30-60,43-75,112-122
		c51-36,96-59,132-67c30-7,58-16,62-21c4-4,15-32,23-62l16-55l-85-79l-84-79v-79v-79h31c22,0,52-15,100-51c66-49,69-53,69-93
		c0-35,6-48,36-77c20-18,49-62,65-95l28-62l76-25l75-26v50c0,27,5,49,10,49c6,0,45-10,86-22c82-24,94-37,94-101l1-32l25,29l26,29
		l63-11c87-17,100-15,145,13l40,25l65-17c59-16,66-20,79-54c15-36,20-39,108-66c90-28,97-29,214-20l121,9l51-36c46-34,58-37,136-43
		c47-3,86-7,86-9c0-1-33-59-72-127c-71-121-77-129-193-227c-66-57-126-109-133-118s-12-45-12-88c0-64-6-85-55-204
		c-30-73-71-168-91-211c-23-52-42-116-54-187l-18-107l24-41l23-41l-44-112c-40-98-45-120-45-188c0-55,6-94,21-133c11-30,22-56,23-58
		c2-1,19,5,39,13l37,15v-45c0-25,4-45,9-45c10,0,19,3,106,38l51,20l57-24c51-22,67-24,132-18c66,6,77,10,106,40c30,31,38,34,90,34
		c51,0,60-3,82-30l25-30l119,16c182,24,167,16,159,77c-4,28-9,53-11,55s-20-5-42-16c-70-36-78-36-95,0c-21,46-5,87,52,132
		c37,30,53,36,93,36c41,0,51-4,76-32c27-31,28-35,16-65c-12-29-12-32,8-37c12-3,41-6,65-6h43l-7,35c-4,22-2,35,4,35s17,3,25,6
		c11,4,20-9,32-48c10-29,18-54,19-55s30,6,64,16l61,19l83-24c46-13,108-24,139-24c54,0,59-3,189-95l133-95h68c68,0,68,0,110,45
		c23,25,45,45,49,45s13-11,20-25c11-21,21-25,59-25c75,0,113-16,166-70l49-50l-12-47c-15-56-12-60,71-69c31-4,57-11,57-16
		s-7-25-15-45s-13-38-11-40c7-7,168,24,175,34c3,5,28,41,54,80c45,65,48,73,39,105c-10,35-5,138,7,138c3-1,26-5,51-10
		c28-5,59-5,83,1c35,9,43,7,88-22l50-32l81,22c44,12,81,21,82,19s12-41,25-88c12-47,26-89,31-94c13-13,147,8,208,32
		c56,23,54,24,66-30l6-28l76,53c48,33,80,62,86,80c10,26,13,27,76,27c37,0,72,4,77,8c6,4,24,28,40,54c30,47,31,48,85,49
		c30,0,152,6,270,12c240,13,222,6,206,88c-7,34-5,38,27,58c19,11,37,21,41,21c3,0,6-16,6-35s1-35,3-35c1,0,34,9,72,20s77,20,87,20
		c9,0,28-20,42-45c25-42,29-45,71-45c24,0,65,9,92,21c39,17,59,19,109,14l62-6l7-56c5-38,17-72,38-104c35-52,52-59,143-59h54v48
		c0,41,5,53,30,77c33,32,35,42,19,98c-12,43-40,60-120,71l-46,7l40,77l40,78l-23,57c-18,44-34,63-70,88c-40,28-49,39-56,78
		c-8,40-13,47-39,51c-30,5-30,6-27,60c3,46,10,62,44,102c37,44,44,48,84,48c38,0,51,6,88,40c40,37,52,42,145,59c109,20,91,9,247,146
		c33,29,35,34,41,115c5,74,10,90,36,122l29,36l71-39c119-66,113-64,152-43c20,10,49,36,66,57l31,38l-23,61l-22,61l24,69l24,69
		l-32,29c-18,17-38,39-45,49c-8,11-29,23-48,28c-27,7-36,17-48,50c-13,33-22,43-52,52c-51,15-71,14-85-6c-11-15-16-14-57,12
		c-40,25-47,35-57,81c-10,45-20,60-61,94c-42,35-51,39-74,31c-22-9-28-6-50,22c-14,18-31,38-38,44c-81,78-142,149-140,163
		c1,8-18,30-43,47c-45,33-92,42-112,22c-17-17-112,28-119,57c-4,14-23,33-47,46c-43,24-54,46-56,110c-1,32-5,37-30,43
		c-26,6-31,12-36,49c-8,49-12,57-40,72c-14,8-20,22-20,45c-1,31-5,35-42,48c-38,14-73,52-73,80c0,6,14,17,30,26c24,13,30,22,30,49
		s5,35,23,40c23,5,74,92,62,105c-4,3-21,11-38,17c-26,9-31,16-29,38c3,26-4,30-40,27c-12-2-18,5-18,17c0,13-18,29-59,51
		c-32,17-66,31-75,31s-16,8-16,20s-14,29-35,42c-29,19-34,27-30,47c10,39-12,77-56,96c-40,18-52,48-25,58c9,4,12,14,9,25
		c-7,29,35,41,54,16c7-10,13-24,13-31s8-13,18-13c22,0,72-62,72-89c0-14,7-21,19-21c15,0,22,12,31,51c10,41,23,61,69,106
		c131,128,140,133,239,133c51,0,73,5,92,20c14,11,32,20,41,20c8,0,19,4,25,10s25-1,54-20c35-23,52-29,75-24c39,8,85,52,85,80
		c0,21,6,23,81,30c75,6,81,9,90,33c6,14,20,36,31,48c16,17,25,20,45,12c28-10,43-5,43,17c0,8,5,14,11,14c7,0,18,8,25,17
		c12,17,14,17,36-3c34-31,69-36,96-14c12,10,22,27,22,37s4,23,9,29c5,5,11,18,13,28c3,22,88,48,125,39c12-3,32,2,43,10
		c16,11,37,14,75,10c33-4,55-1,59,6c4,6,16,11,26,11c14,0,19,6,17,22c-3,32,52,61,123,64c32,1,68,9,81,17c13,9,43,20,66,26
		c23,7,50,22,61,35c15,19,32,25,86,31c56,6,69,11,76,29c10,28,6,33-34,40c-22,4-37,14-41,26c-4,11-17,23-31,26c-29,7-28,5-7,49
		c9,19,24,35,32,35c29,0,91-21,91-30c0-13,47-13,72,1c16,9,24,7,42-10c12-12,29-21,37-21s20-9,27-20c10-16,9-27-3-57
		c-17-41-13-53,15-35c37,23,49,16,39-25c-5-21-9-41-9-44c0-13,108-59,137-59c36,0,63,27,63,63c0,19,11,33,40,54c28,20,40,35,40,53
		c0,14,10,41,21,60c12,19,41,102,65,185c48,163,49,187,8,242c-14,18-24,45-24,60c2,56-8,115-21,128c-8,8-61,31-119,53
		c-119,45-125,53-90,123c27,53,21,100-17,124c-44,29-73,66-73,93c0,14-12,38-26,53c-20,21-25,34-20,53c3,14,13,26,21,26s15,4,15,8
		s16,25,35,45c36,38,39,48,36,107c-1,19,5,49,13,65c25,47,20,72-15,91c-27,13-30,19-24,42c3,15,8,58,10,96l4,68l-60,27
		c-46,20-59,31-59,47c0,12-10,47-21,78c-22,56-20,106,3,106c7,0,25,12,40,27c29,27,36,61,18,79c-7,7-7,21,1,43c17,49-1,72-93,117
		c-60,29-92,52-126,92c-25,29-62,60-81,68c-20,8-52,30-71,48c-21,21-50,36-73,40c-37,7-38,9-31,34c5,15,9,55,9,90v63l75,45
		c41,25,87,57,103,72c32,31,51,92,43,140c-4,26,2,46,25,87c29,51,30,55,15,84c-9,16-16,42-16,57c0,45-51,218-71,240
		c-14,15-19,35-19,75c0,33-6,63-15,75c-8,10-15,33-15,50c0,34-16,54-42,54c-25,0-23,13,4,25c30,13,34,41,9,55c-16,8-28,7-53-6
		c-61-31-165-8-273,61c-22,14-52,31-67,37c-41,18-36,50,15,92l42,35l-69,66c-51,48-63,65-48,65c11,0,25,7,32,15c21,25,43,19,36-10
		c-5-20-3-25,12-25c25,0,42,19,42,47c0,15,6,23,18,23c24,0,62-28,62-45c0-7,10-15,23-17c18-2,22-9,22-38c0-31-3-35-23-33
		c-13,2-32-2-42-7c-18-10-19-8-14,20c6,28,5,30-24,30c-40,0-46-11-26-53c24-51,13-81-33-93c-42-10-55-37-26-52c20-11,132,3,148,19
		c5,5,52,9,105,9h97v46c0,43-3,48-56,92c-30,26-75,66-100,88c-32,29-59,44-87,48c-49,9-105,52-128,101c-13,26-23,35-42,35
		c-17,0-28-7-31-20c-3-11-13-20-22-20c-24,0-33,11-21,25c23,28-20,22-66-9c-35-23-64-35-102-38c-62-6-67-10-52-38c10-19,9-21-11-18
		c-15,2-26,14-33,36c-6,18-17,37-24,41c-8,4-10,15-6,26c7,16,3,17-34,11c-33-5-42-3-42,8c0,8-6,19-13,23c-8,4-22,20-32,36
		c-11,18-26,27-43,27c-14,0-33,7-42,15s-34,18-56,23c-33,7-39,12-39,34c0,14-8,35-18,46c-12,13-15,22-8,27c18,11,12,35-8,35
		c-50,0-60,51-20,95c10,12,22,35,25,52c3,18,15,40,25,49c11,9,19,28,19,41c0,12,5,23,10,23c6,0,10,9,10,21c0,15-5,20-22,17
		c-17-2-24-12-29-38c-3-19-11-46-19-60s-16-41-20-60c-7-45-19-47-220-49c-129-1-166,3-218,19c-106,33-116,30-166-48
		c-24-37-54-88-66-112c-18-39-33-51-97-85c-44-23-92-58-113-82c-35-40-41-43-88-43c-27,0-92-9-145-20c-73-15-111-17-166-11
		c-71,7-72,7-111-26c-31-26-43-47-56-95l-17-60l-48,6c-56,8-111-11-128-42c-15-28-14-32,9-32c10,0,30-5,44-11c21-10,23-15,14-35
		c-13-28-17-29-43-11c-11,7-35,19-53,27c-29,11-34,11-45-4c-19-26-67-5-67,29c0,18-7,26-24,31c-14,3-27,12-30,20c-7,19-66,18-155-2
		c-58-13-76-22-93-45c-27-36-34-36-50-1c-9,19-27,31-62,42c-65,21-83,52-53,95c11,16,21,31,22,32s18-2,39-8c36-10,39-8,79,28
		c23,21,70,56,105,78l64,40l-6,65c-3,36-8,77-12,91c-4,19,1,34,22,59l29,33l-61-6c-34-4-75-2-93,3c-26,7-34,6-44-11
		c-6-10-20-19-31-19c-10,0-41-16-67-35c-69-49-112-48-163,4c-31,32-49,41-99,51c-34,6-77,20-97,30c-67,34-116,42-176,29
		c-51-12-56-16-85-66c-31-53-52-66-63-38c-5,15,12,55,24,55c3,0,11,4,19,9c10,7,11,13,1,30c-9,17-9,26,0,36c9,11,5,18-22,35
		c-38,24-80,22-212-11c-64-16-81-18-87-7c-17,26-8,37,39,52c26,9,66,34,90,57c39,37,42,44,42,92c0,46-3,55-32,79l-33,27l27,1
		c34,0,44,16,20,29c-10,6-26,30-36,54c-10,28-26,48-42,56c-23,10-26,9-35-19c-9-26-15-29-37-24c-15,3-34,15-43,25
		c-10,10-59,34-110,52c-72,25-95,38-99,54c-5,21-9,20-85-27c-81-49-94-50-95-6c0,17-4,16-32-11c-18-17-48-34-66-38c-30-6-37-3-65,27
		s-47,38-142,63c-138,35-205,45-227,33c-12-6-26-4-42,7c-22,14-28,15-52,2c-24-12-35-12-82,0c-50,13-56,13-64-1c-7-13-29-16-117-16
		c-94,0-112,3-135,21c-21,17-26,29-26,65c0,39,3,46,28,55c45,18,54,24,50,32c-2,5,5,13,16,19c15,8,16,12,5,19
		C3104,10253,3075,10241,3047,10193z"/>
	<path d="M3145,9843c-17-2-37-13-44-25c-21-33,14-60,85-66c51-4,59-2,74,18c12,16,15,31,11,49c-6,23-13,26-52,27
		C3195,9847,3161,9845,3145,9843z"/>
	<path d="M2992,9757c-28-30-28-48,1-75c27-26,59-28,78-6c11,13,10,17-4,25c-9,6-25,26-35,45l-18,35L2992,9757z"/>
	<path d="M7960,9741c-76-7-130-38-130-75c0-13-9-31-20-41c-29-27-16-31,19-6c20,14,28,27,24,37c-6,16,12,34,35,34c19,0,14-25-8-45
		c-11-10-20-29-20-42c0-20-5-23-41-23c-38,0-41-2-35-22c3-13,6-26,6-30c0-5,14-8,30-8c17,0,30-4,30-10c0-5-15-10-34-10
		c-25,0-40-7-55-26c-25-32-26-44-6-44c8,0,15-4,15-10c0-5,15-10,34-10c22,0,36-6,40-16c13-34,6-41-44-48c-46-6-50-9-50-34
		c0-19,10-35,35-55c19-15,35-34,35-42s8-15,18-15c9,0,50-14,91-30c83-34,94-36,110-16c9,10,9,20,0,39c-14,31,3,67,31,67
		c11,0,20,7,20,15c0,9,9,15,24,15c14,0,37,5,52,10c20,8,32,7,50-5c19-12,27-13,44-3c29,19,50-4,27-30c-16-17-15-19,18-34
		c35-15,35-15,35,9c0,13,12,35,26,48c15,14,22,25,17,25s-26,16-46,35c-28,27-44,35-72,35c-32,0-38,4-51,35c-24,58-19,74,31,96
		c56,25,71,62,36,90c-19,16-35,17-119,12l-98-6l-32,33c-37,37-37,49,1,68c30,15,37,43,10,40C8033,9748,7996,9744,7960,9741z"/>
	<path d="M3325,9562c-27-8-52-16-54-18c-9-8,31-54,48-54c31,0,63,33,59,61l-3,25L3325,9562z"/>
	<path d="M3140,9558c0-7,5-20,10-28c8-12,10-11,10,7c0,12-4,25-10,28C3145,9568,3140,9565,3140,9558z"/>
	<path d="M5687,9532c-19-20-27-39-27-65c0-40,22-59,43-38c17,17,37,13,37-9c0-10,8-23,18-28c19-10,202-13,201-3c0,3-17,33-37,65
		c-35,56-41,60-97,76C5711,9562,5716,9562,5687,9532z"/>
	<path d="M3110,9465c0-19,27-55,42-55c20,0,23,12,8,41C3151,9467,3110,9479,3110,9465z"/>
</g>
</svg>
