<svg version="1.1" id="Layer_1" xmlns="http://www.w3.org/2000/svg" xmlns:xlink="http://www.w3.org/1999/xlink" x="0px" y="0px"
	 width="1024px" height="1024px" viewBox="0 0 1024 1024" style="enable-background:new 0 0 1024 1024;" xml:space="preserve">
<g transform="translate(0.000000,1024.000000) scale(0.100000,-0.100000)">
	<path d="M7390,10215c-29-16-62-24-93-25c-70,0-207-38-244-66c-30-23-45-64-24-64c5,0,13-9,16-20c8-27,23-25,55,5
		c20,19,45,27,124,39c70,11,105,21,120,35c12,11,39,28,61,37c54,22,95,52,95,70C7500,10248,7441,10242,7390,10215z"/>
	<path d="M8571,10076c-12-14-34-16-140-14l-126,3l-145-63c-113-49-163-65-225-73c-44-5-105-14-136-19c-30-6-75-10-98-10
		c-31,0-58-9-90-29c-84-51-106-55-202-37c-47,9-107,16-134,16h-49l29-30c26-27,27-30,9-30c-11,0-29,7-40,15c-28,22-34,18-34-19
		c0-43,29-66,82-66h38l-6-40c-7-44-11-41,77-59c50-11,61-18,95-61c22-27,50-51,64-55c22-6,23-8,7-16c-21-12-70,19-89,57
		c-9,19-30,32-72,46c-64,21-86,19-86-9c-1-10-12,4-27,31l-25,50l-14-25c-10-18-13-20-14-6c0,21-28,23-37,1c-3-8,5-26,18-41l24-26
		l-25,6c-14,4-30,7-37,7s-15,17-18,38c-4,20-11,57-17,82c-8,36-7,52,5,81c25,60,17,63-145,56c-147-7-206-19-388-75
		c-91-29-434-199-541-270c-32-21-63-32-110-37c-75-8-109-30-163-103c-20-28-75-77-128-115c-51-37-103-75-115-84
		c-31-25-52-100-63-224c-11-121-19-147-60-199c-37-46-41-107-10-150c30-42,11-45-32-3c-21,20-40,34-43,31c-7-7,59-142,86-176
		c14-19,16-35,12-95c-4-54-2-81,9-102c9-17,18-51,22-76c6-42,5-47-14-52c-20-5-21-10-15-62l7-56l-51-47c-28-26-51-54-51-62
		c1-27,24-58,70-94c49-39,98-47,120-21c17,21,86,19,118-3c78-54,177-67,214-30c13,13,30,21,40,20c9-2,30,4,47,12c37,20,51,20,51,1
		c0-23,34-35,100-35c56,0,60-1,51-19c-8-13-25-20-65-23c-47-4-58-9-83-38c-15-18-31-42-35-52s-25-44-47-76l-39-58l-7-200l-7-199
		l39-54c21-30,63-73,93-97l55-43l120-2c112-2,128,0,235,33c63,20,153,41,199,48c87,13,87,14,144,81c15,17,17,17,56-4
		c23-12,40-29,40-37s-17-29-38-47c-34-29-43-32-136-38c-91-5-184-23-242-46c-18-7-23-17-23-43c0-19-6-37-12-40c-10-5-10-7,0-12
		c20-9,57-101,72-175c13-64,12-69-16-150c-56-162-204-347-304-380c-19-7-54-29-78-50s-55-39-70-41c-17-2-34-15-47-34
		c-11-17-37-44-58-59c-43-30-69-81-88-168c-11-49-19-64-53-92c-35-28-60-37-173-61l-132-27l-57,49c-49,41-66,50-108,54
		c-49,5-52,7-79,57c-34,64-69,78-169,70c-38-3-94-2-126,3c-51,8-62,14-102,60c-37,41-51,50-78,50c-19,0-47-8-62-17
		c-24-14-31-14-44-3c-9,7-15,20-14,29c2,12-6,17-32,19c-43,4-94,41-85,62c3,8,29,26,56,39c37,17,58,36,80,70c16,26,40,53,54,59
		s25,20,25,30c0,25,93,112,120,112c28,0,25,26-7,64c-16,17-35,43-44,56l-17,25l5-27c6-30-20-124-42-152c-12-16-17-17-30-6
		c-9,8-26,31-37,53c-21,42-15,57,25,57c13,0,17,9,17,41c0,25,9,55,21,75l20,34l-26,24c-20,18-30,43-42,103c-8,43-21,85-28,93
		c-18,21-55,138-55,172c0,16,7,43,16,60c15,29,18,30,64,25c29-4,52-1,59,6c15,15,81-17,88-43c4-16,14-20,50-20c38,0,55,8,115,52
		c70,52,88,77,88,124c0,39,42,74,87,74c32,0,42,5,55,28c15,26,15,28-8,55c-13,16-24,41-24,57c0,58-17,77-75,85c-30,3-59,13-66,21
		c-6,8-24,14-40,14c-22,0-32-7-44-30c-12-24-22-30-48-30c-46,0-72,22-87,74c-12,43-10,140,6,228c9,52-34,167-91,242
		c-25,34-50,82-59,116c-16,55-18,58-54,64c-97,16-150,1-186-54c-14-22-49-53-77-69c-42-24-56-27-82-20c-18,4-49,11-70,14
		c-56,9-117,67-117,111c0,19,5,42,11,52c8,13,9,28,2,48c-11,34-47,42-113,24c-59-16-80-54-80-150c0-77-46-328-74-409
		c-9-24-31-69-50-100c-28-47-34-69-39-136c-3-44-13-101-22-127c-14-39-15-62-7-135c8-79,7-90-10-112c-14-19-18-41-18-106
		c0-48-6-100-15-125c-8-23-20-72-26-108c-5-37-23-109-38-162c-16-52-32-122-35-155c-13-105-45-216-108-370c-65-157-291-596-361-700
		c-61-91-151-207-182-235c-15-14-53-56-84-95c-31-38-102-115-159-169c-58-57-109-115-119-137c-10-24-24-39-34-39c-31,0-69-23-69-41
		c0-11,33-38,92-74c51-32,111-72,133-89c67-54,161-115,188-121c14-4,35-17,47-30l21-23l-58,13c-32,6-75,22-95,34l-38,23v-29v-28
		l-40,45c-22,25-53,62-67,84c-34,48-69,63-94,40c-16-15-19-15-19-2c0,16-37,68-48,68c-25-1-31-18-23-68c7-46,6-52-10-52
		c-31,0-56,49-51,100c2,25,9,50,14,57c11,14-24,53-48,53c-73,0-99-132-48-244c23-50,24-59,13-90c-11-32-10-37,14-66
		c40-47,47-96,22-153c-6-14-2-17,23-17c17,0,35-6,39-14c9-15,73-36,111-36c37,0,198-109,221-150c30-54,60-75,136-100
		c39-13,108-42,155-65s110-50,140-59c30-10,75-25,100-33c159-55,198-53,291,13c35,24,77,52,93,62c16,9,44,30,62,46l34,28v-36
		c0-20,3-36,8-36c14,0,107,58,126,79c29,32,38,25,19-14c-25-53-7-54,41-2c46,50,68,60,59,27c-5-19-2-20,38-14c24,3,50,8,57,10
		c10,3,11-2,6-18c-5-18-3-20,12-13c11,4,31,10,47,13c34,5,38-21,5-39l-21-12l22-11l22-12l-21-19c-12-11-19-27-17-37c5-16-2-18-47-18
		c-29,0-77,7-107,16c-34,11-90,17-154,16c-100,0-100,0-205-50c-106-51-203-82-258-82c-16,0-49,7-72,15c-45,16-97,19-149,9
		c-24-5-39-19-66-64c-31-51-42-60-117-96c-76-36-91-39-182-42c-92-4-102-2-165,26c-97,45-136,50-167,21c-29-27-31-50-5-73
		c11-10,22-29,26-43c6-24,7-25,73-18c49,4,71,3,83-7c18-14,49-88,49-116c0-9,16-27,35-40c42-26,43-43,14-131c-20-59-20-63-4-81
		c10-11,26-22,36-25c11-4,19-13,19-22c0-8,8-27,19-41c10-15,29-51,41-79c26-60,18-83-29-83c-14,0-41-4-59-9c-18-6-89-11-157-13
		l-124-3l-45,44c-25,25-61,74-80,110c-61,116-119,163-229,187c-43,10-77,22-77,29s-9,20-19,29c-18,16-40,18-208,14
		c-201-3-205-4-277-62c-45-36-81-31-91,13c-3,16-15,37-26,47c-37,34-89,111-89,133c0,43,27,32,98-39c64-63,71-73,65-100
		c-7-38,4-38,52,0c21,17,50,34,64,37c36,10,178,9,223-1c28-7,47-4,75,9c21,10,41,22,44,27c4,6-10,42-30,82l-37,71l-124-2
		c-69-2-170-5-225-8c-55-4-154-7-220-9c-140-3-115,8-331-136c-23-16-52-31-65-35c-61-19-77-71-36-115c13-14,53-44,88-68
		c55-35,72-54,109-118c55-96,74-109,165-109c62,0,75,4,119,32c56,37,86,43,80,15c-5-21,3-32,39-55c17-11,27-26,27-41
		c0-33,32-57,87-67c26-5,53-15,58-23c6-7,24-20,41-29s36-23,43-31c17-21,40-20,64,1c13,13,37,18,79,19c69,1,70,2,94,94
		c20,76,52,116,107,131c42,11,29,19,160-92c99-83,163-120,229-131c59-11,67-10,94,9c18,13,51,22,88,25l58,5l15-34c10-26,11-38,3-48
		c-19-22,86-41,146-26c48,12,63,6,64-25c0-11,72-55,109-66c14-4,39-1,62,9c37,14,39,18,39,58c0,30-6,47-21,61c-46,42-60,100-38,162
		c8,25,7,35-7,57c-9,14-15,27-13,29s78,29,168,60l165,57l28-28l28-28l-25-53c-32-69-32-97,0-118c23-15,27-15,43-2c31,27,68,30,104,8
		s82-26,122-10c21,8,26,16,26,43c0,40,12,57,68,91c24,15,53,43,64,62c25,43,65,64,133,71s112-11,124-52c19-63,20-82,6-102
		c-8-11-19-41-26-67c-9-37-15-46-28-41c-27,11-89,18-105,12c-24-10,0-54,33-60c74-15,150-18,189-8c41,12,42,11,73-24
		c17-19,38-35,46-35c24,0,161,128,182,169c11,20,24,55,30,78c7,24,23,51,38,63l26,21l26-25c14-14,38-27,52-31c23-6,27-14,37-69
		c16-84,15-137-3-160c-22-29-18-70,8-103c45-55,107-164,115-201l8-37l89-13c71-10,95-18,114-37c23-23,24-27,14-82c-6-32-8-62-4-66
		c12-12,232,13,264,30c22,11,35,12,56,4c14-6,45-15,68-20c39-8,44-7,58,16c9,14,38,34,65,45c29,12,50,28,53,40c5,17,11,19,39,13
		c44-10,41-7,94-76c41-53,47-67,51-122c6-73,13-80,108-102c39-9,77-19,86-21c9-3,23-19,30-36c22-53,60-68,176-68h101l12-37
		c7-21,16-42,20-46c4-5,31,3,59,17l51,26l9-22c22-61,21-73-10-103c-45-42-54-73-29-100c26-28,26-32-10-50c-24-13-29-20-24-39
		c8-35-20-94-47-98c-14-2-31-17-43-37l-20-34l32-27c40-33,38-40-34-137c-67-90-69-123-9-135c31-5,29-29-12-102c-30-54-45-71-75-83
		c-25-10-40-24-48-46c-7-18-15-40-18-49c-4-9-23-28-42-41c-33-22-35-26-35-83c0-67,19-101,72-131c47-25,52-63,27-175
		c-5-23-3-28,13-28c11,0,28,6,38,14c17,12,22,12,43-5c31-24,38-19,46,30c9,57,29,59,88,6l50-45l40,21c31,16,43,18,54,8
		c13-11,44-9,91,6c17,6,22,2,25-17c2-17,8-22,23-19c11,2,53,6,93,8c66,4,77,2,97-17c19-18,29-20,51-13c15,5,31,19,35,30
		c12,32-29,104-69,123c-20,9-32,22-32,35c0,18,5,20,54,17c65-4,76,12,48,69l-19,38l34,38c32,35,36,36,65,25c18-6,32-11,32-9
		c1,1,9,19,20,39c18,35,18,39,2,63c-13,19-16,37-11,64c3,20,2,49-4,64c-10,27-71,72-107,79c-15,2-21,15-26,58c-7,53-6,56,22,81
		c30,25,30,26,10,44c-16,14-27,16-57,10c-21-5-69-9-108-11c-39-1-87-9-107-18c-21-9-47-16-60-16c-21,0-21,0,5,28l27,28l-31,63
		c-16,36-46,86-65,113l-36,48h34c53,0,74,10,84,38c10,27,10,27,39-25c23-40,36-53,53-53c30,0,66,39,96,105c25,56,73,97,170,145
		c41,21,52,32,63,66c10,29,21,44,36,47c12,3,52,18,90,33c74,31,83,48,45,86l-22,22l22,14c12,8,22,21,22,28c0,17-31,11-98-18
		c-45-19-79-22-106-12c-22,8-23,126-1,144c19,16,19,33-1,71c-15,31-15,31,25,72c90,93,130,145,159,210c21,46,36,67,49,67
		c28,1,107,145,98,179c-4,14-7,43-7,64c0,34-2,37-29,37c-35,0-48,24-26,48c28,31,32,153,8,276c-12,59-24,113-28,120
		c-4,6-52,67-106,135l-99,124l6,46c3,25,9,72,12,103l6,56l-38,20c-22,10-63,27-93,38c-59,21-71,39-71,104c0,26,6,42,16,48
		c15,9,15,12-2,40c-21,36-95,72-148,72c-19,0-36,6-38,12c-8,22,14,77,32,83c16,5,31,29,44,68c7,22-23,84-57,115c-40,37-21,82,35,82
		c41,0,109,29,143,61c39,37,56,36,118-2c44-27,58-31,104-27c29,3,56,8,59,11c7,7-31,103-50,126c-6,8-26,20-43,28c-38,16-42,30-10,38
		c116,26,132,25,142-13c3-15,18-39,32-54c32-33,116-47,164-27c30,12,33,11,63-23c35-39,75-59,103-52c12,4,35-9,65-35
		c25-23,56-41,68-41c21,0,22,3,17,57c-3,32-8,68-12,81c-6,17-3,22,9,22c9,0,19-7,22-15c4-9,19-15,40-15c18,0,52-7,74-16
		c48-20,68-14,72,21c2,22,12,30,59,45c31,11,89,37,130,59c41,21,114,51,163,66c78,23,92,25,114,13c14-7,44-13,68-13c35,0,49,6,79,35
		c46,44,57,65,64,115c6,37,10,41,49,53c40,13,42,16,42,52c0,31-7,44-39,73c-22,20-53,43-69,51c-17,9-40,31-51,50c-18,28-31,36-72,45
		c-27,6-59,11-69,11c-17,0-20,7-20,49c0,45,3,53,33,75c19,15,44,26,55,26c20,0,22,5,22,59c0,93-2,91,109,91c79,0,102,4,131,21
		c49,29,60,47,60,95c0,37,5,47,42,78c25,22,52,36,69,36c35,0,85,55,124,138c25,54,32,62,50,57c65-20,96-27,102-21c15,15,4,68-21,104
		c-64,93-55,202,24,287c26,27,29,38,32,120l3,90l-47,25c-41,22-53,37-97,120c-27,52-56,96-65,98c-8,2-35-15-60-38l-45-42l-93,31
		c-51,17-129,35-173,40c-77,8-107,18-185,62c-19,10-45,19-56,19c-17,0-24,9-33,44c-6,25-11,60-11,79c0,18-7,55-16,81
		c-18,54-14,64,20,48c29-13,36-7,36,29c0,26,3,29,50,35c28,4,50,9,49,13c0,3-19,20-42,36c-59,43-67,84-37,181c13,41,34,83,46,95
		c22,21,24,21,89,4c51-13,74-14,97-6c39,14,105,14,113,1c3-5,18-10,32-10s31-6,37-14s29-17,51-21c33-5,46-2,74,19c33,24,35,25,70,9
		c20-8,43-17,52-20c20-6,64,49,73,92c4,17,11,146,16,288l9,258l29,52c20,36,31,73,36,120c7,70,37,132,123,250c26,35,40,70,54,134
		c10,48,19,97,19,109s7,27,15,34c27,22,28,77,5,203c-13,67-33,164-46,215l-22,93l24,55c14,32,29,93,35,142c13,110,13,121,0,155
		c-9,24-16,27-54,27c-62,0-135,25-189,65l-47,35l-3,67l-3,68l-82,3c-76,3-89,6-155,44c-40,23-90,55-111,72c-63,51-110,165-124,298
		c-6,60-9,66-68,126C8591,10085,8583,10090,8571,10076z"/>
	<path d="M5942,10050c-33-27-41-93-16-121c10-12,32-26,49-33c42-18,123,4,148,39c21,29,38,30,149,13c73-11,82-10,165,15
		c48,15,122,35,163,45c56,14,76,23,78,36c4,18-3,18-109,11c-62-4-124-12-138-17c-32-13-351-26-358-15c-5,9-89,47-101,47
		C5968,10069,5954,10061,5942,10050z"/>
	<path d="M5740,10001c-8-5-127-48-265-95c-228-79-259-87-350-93c-123-7-141-14-150-51c-3-17-22-44-41-61c-37-34-40-47-22-86
		c9-21,18-25,54-25c37,0,46,4,65,33c35,51,48,57,122,57h70l86,64c84,62,87,63,163,69c86,6,108,15,160,65c27,26,42,33,59,29
		c47-12,125,59,104,93C5787,10012,5760,10012,5740,10001z"/>
	<path d="M4689,9440c-50-15-239-121-254-143c-8-12-15-30-15-40c0-12-20-27-65-48c-36-17-67-35-71-40c-3-5-16-9-30-9
		c-22,0-25-4-22-27c3-27,6-28,60-31l57-3l68,62c80,74,85,81,81,116c-3,24,2,28,53,43c31,10,72,29,90,43c19,13,49,28,67,32
		c32,7,62,28,62,46C4770,9452,4726,9452,4689,9440z"/>
	<path d="M4178,8962c-19-21-67-91-108-157c-40-66-94-151-119-190c-41-64-46-77-52-150c-4-44-9-93-13-110c-10-46,22-77,84-83
		c45-4,50-3,50,16c0,12-4,24-10,27c-5,3-10,15-10,25c0,18,2,18,35,4c44-18,41-19,55,15c7,17,30,39,58,54c26,14,66,45,89,69
		c38,39,45,54,74,168c36,139,35,173-6,234c-13,19-23,47-22,62c2,22-4,29-34,39C4213,8998,4212,8997,4178,8962z"/>
	<path d="M5880,6834c-49-23-96-56-135-93c-53-51-66-59-108-64c-66-7-87-28-87-90c0-76-22-98-169-169c-103-51-139-74-201-133
		c-41-39-126-103-187-143c-62-40-113-77-113-82c0-6-23-21-50-35c-28-14-53-32-56-40c-9-24,41-120,75-144c32-23,32-23,96-6
		c63,17,66,17,118-2c29-12,88-44,131-72s85-51,93-51s45-32,83-71c60-63,71-71,106-72c53-2,170,32,217,62c67,43,102,141,83,228
		c-12,53,5,70,84,83c56,9,70,15,70,30c0,9,17,36,38,59c29,32,61,51,145,86c60,25,117,45,126,45s33,21,52,46s46,63,61,83
		s41,74,59,121c28,76,30,94,27,172c-3,66-9,92-22,107c-23,26-160,92-211,102c-77,15-163,44-182,62C5994,6878,5963,6874,5880,6834z"
		/>
	<path d="M2094,4021c-34-16-76-32-95-36c-85-19-117-88-64-140c26-27,40-31,50-15c3,6,24,10,46,10c36,0,39-2,29-19
		c-15-29-13-31,25-31s43,10,20,50c-12,22-11,27,2,43c22,24,74,21,114-6c33-22,34-26,37-92c3-82,23-132,79-194c38-43,40-44,117-50
		c75-6,80-8,111-44c24-28,40-37,64-37c17,0,74-21,129-48c94-47,99-49,166-44c66,4,74,7,133,55c49,40,63,56,63,78c0,29,11,25-135,45
		c-33,5-58,18-99,53c-31,25-87,69-126,96c-50,36-72,59-78,80c-8,28-13,30-63,36c-41,5-68,15-111,46c-32,22-70,46-86,52
		c-15,7-36,25-45,41c-12,20-28,30-55,35c-27,4-42,14-54,35c-15,27-22,30-65,30C2171,4050,2135,4040,2094,4021z"/>
	<path d="M1925,3679c-22-4-96-8-165-9c-160-1-215-18-247-76c-37-65-29-145,18-169c39-21,56-19,123,15c68,35,144,41,167,14
		c9-11,23-14,47-11c29,5,35,2,52-26c11-18,20-44,20-58c0-35,58-109,87-109c12,0,25,5,28,10c10,16,21,12,68-24c41-31,47-33,93-26
		c106,17,204,61,204,90c0,11,9,28,20,37c25,22,26,45,2,66c-22,20-125,57-158,57c-27,0-42,25-70,113c-26,83-35,89-118,74l-68-11
		l-22,27c-12,15-26,26-31,26C1969,3688,1947,3684,1925,3679z"/>
	<path d="M2336,3165c-14-15-34-25-50-25c-39,0-96-27-96-45c0-9,25-42,55-73c31-31,65-72,78-89c12-18,29-36,37-39
		c27-11,164-34,208-34c38,0,45-4,63-35c29-48,50-34,84,55c29,76,27,96-11,138c-13,15-36,52-52,82l-28,55h-75c-54,0-81,5-99,18
		C2414,3198,2364,3195,2336,3165z"/>
	<path d="M1015,2430c-34-16-78-29-101-29c-55-1-103-18-136-49c-34-31-34-39-7-103l21-49l-27-36c-27-36-28-39-15-83c7-25,16-64,19-86
		c5-35,16-47,84-102c62-49,84-61,105-58c15,2,49,7,75,10c55,7,60,15,71,106l7,57l58,6c49,6,61,11,80,36c12,17,27,30,34,30
		s77-36,156-80c133-74,149-80,201-80h57l12-57c6-31,11-66,11-77c0-12,11-28,23-37c30-22,183-44,277-40c70,2,76,4,115,40
		c22,20,62,52,88,70c41,28,53,32,86,26c63-10,121,27,273,177c171,168,195,200,179,234c-6,14-11,34-11,45c0,12-4,17-11,14
		c-6-4-7-19-4-36c4-16,5-29,2-29c-2,0-21,14-42,30c-26,21-42,27-49,20c-5-5-27-10-48-10c-30,0-38-4-38-18c0-11,10-24,23-30
		c20-10,21-11,2-11c-11,0-29,6-39,14c-11,8-30,15-43,15c-20,0-21-3-13-26c17-43,12-43-34,2c-24,25-53,44-65,44c-44,0-89,28-115,72
		c-26,45-64,74-106,80c-20,2-26-2-28-22c-2-14-7-29-12-35c-4-5-10-27-14-47c-7-38-7-38-56-38c-45,0-53-4-86-40c-51-55-145-79-174-45
		c-7,8-23,15-36,15c-14,0-33,5-44,12c-15,10-26,9-55-5c-32-15-39-16-68-2c-18,8-60,37-94,64c-54,41-71,49-122,55c-48,6-68,14-101,41
		c-38,32-153,76-191,74C1081,2459,1048,2446,1015,2430z"/>
</g>
</svg>
