<svg version="1.1" id="Layer_1" xmlns="http://www.w3.org/2000/svg" xmlns:xlink="http://www.w3.org/1999/xlink" x="0px" y="0px"
	 width="1024px" height="1024px" viewBox="0 0 1024 1024" style="enable-background:new 0 0 1024 1024;" xml:space="preserve">
<g transform="translate(0.000000,1024.000000) scale(0.100000,-0.100000)">
	<path d="M5445,10230c-5-8-20-9-42-5c-26,5-40,2-54-11c-17-15-25-16-53-6c-46,17-63,15-69-9c-4-15,5-30,35-57
		c114-103,170-167,216-247c19-33,41-67,48-76c18-20,44-106,44-145c0-35-22-59-45-50c-30,11-28-25,3-57c17-18,40-54,53-82
		c14-32,41-66,75-95c29-25,53-52,53-61c1-9,8-22,16-29s15-20,15-29c0-10,50-75,111-145c132-154,261-343,281-411c13-47,16-50,48-52
		c19-2,43,3,52,11c16,12,17,16,3,44c-9,16-22,32-29,35c-8,3-29,27-47,53c-23,34-27,46-15,41c10-4,21-7,26-7c4,0,27-16,50-35
		c61-51,110-47,55,5c-27,25-33,50-12,50c7,0,21-16,31-35c11-19,25-35,32-35s18-9,24-20s18-20,26-20c9,0,14-5,12-12c-8-22-24-19-38,7
		c-16,30-45,34-37,5c3-11,1-20-4-20s-9-16-9-35c0-29,4-36,27-41c14-4,34-2,44,5c10,6,21,11,24,11s5-45,5-100c0-92-1-100-19-100
		c-28,0-37,21-16,36c17,13,16,15-17,28c-22,9-38,24-41,38c-4,13-13,32-20,43c-13,16-17,17-31,6c-9-7-16-10-16-5c0,13-20-19-20-33
		c0-6,21-35,46-65c63-74,123-186,136-255c20-109,47-146,78-108c7,9,19,14,27,11c7-3,13,1,13,9c0,18,43,41,95,49c30,4,35,3,18-4
		c-13-5-23-12-23-15c0-19,23-45,39-45c10,0,34-6,52-14c35-15,32-18-23-30c-42-9-90-55-82-78c4-15,2-19-7-16c-8,3-15,19-17,36
		c-2,18-7,32-13,32c-5,0-8,10-6,23c2,19-3,22-35,25c-21,2-38-1-38-5c0-5,20-59,45-120c24-61,53-142,64-180c10-37,30-107,45-156
		c14-48,26-98,26-111c0-20,4-22,26-18c14,2,28,11,31,18c8,22,32,17,26-5c-3-14-17-20-49-24c-65-7-76-20-68-81c9-69,22-85,45-54
		c16,20,19,21,24,6c9-24-2-38-31-38c-20,0-24-5-24-31v-30l30,18c23,13,33,14,41,6c22-22-9-45-55-42c-76,6-82-1-78-86
		c3-58,1-80-11-93c-10-12-17-52-22-132c-4-63-13-146-21-185c-14-65-19-75-77-132l-61-63h-66c-55,0-72-4-110-30c-25-16-52-30-61-30
		s-22-6-28-14c-6-7-38-25-70-40c-49-22-63-34-80-69c-12-24-21-51-21-60c0-31,33-102,67-144c45-56,88-80,153-88c106-11,164-34,190-72
		c13-19,36-42,50-51c14-8,39-30,57-49s42-33,55-33s34-7,46-16c14-9,34-14,50-11c48,9,125-29,185-91c122-129,146-248,94-467
		c-19-79-71-185-108-221c-16-15-29-37-29-48c-1-29-20-60-52-86c-16-12-28-28-28-37c0-8-34-48-76-87c-84-79-92-107-43-135
		c23-13,33-13,68-1c29,9,41,19,41,32c0,11-4,17-9,13c-5-3-13,0-16,6c-8,13,23,38,48,39c22,0,23-41,2-74c-11-17-13-30-6-48
		c14-37,37-41,84-14c44,24,89,28,109,8c7-7,18-12,26-12c11,0,13-9,8-39c-7-47,14-115,38-119c22-5,111,33,152,64c17,13,36,24,42,24
		c7,0,29,15,50,34s50,38,65,41c14,4,45,28,69,53c23,26,55,55,70,64c15,10,28,23,28,30s15,32,34,55c18,23,41,63,51,90
		c10,26,32,64,50,83s36,51,40,70c12,55,53,130,73,130c10,1,34,27,56,61c23,36,50,65,65,70c54,19,59,29,90,163c4,19,22,40,50,61
		c61,42,79,70,92,140c6,33,24,85,40,116s29,67,29,80c0,24,13,49,58,108l23,31h-39c-50,0-72,23-72,78c0,35-3,42-20,42
		c-39,0-19,77,35,138c24,26,45,59,47,72c4,31,71,69,181,105c62,20,99,25,177,25c61,0,101-4,106-11c4-6,19-9,36-5c33,6,48-14,28-39
		c-11-13-9-43,6-97c8-29,24-21,40,20c9,20,25,47,36,59c20,22,17,43-6,43c-28,0-33,25-24,125c5,54,14,105,19,111c5,7,7,23,4,36
		c-7,27,27,68,40,49c11-20,42-12,53,14c7,15,20,25,32,25c11,0,20,4,20,8c0,5,18,26,40,48c26,25,40,48,40,65c0,15,11,35,27,49l27,23
		l-23,9c-18,6-21,11-12,22c6,7,8,16,4,19c-3,4,0,13,6,21c8,10,9,16,1,21c-15,9-12,41,5,55c14,12,14,15,0,30c-21,23-19,35,7,52
		c21,14,22,17,8,42c-12,24-12,30,3,55c9,16,17,40,17,54c0,24,68,138,90,152c5,3,10,15,10,25c0,24-45,48-105,57c-37,5-46,10-51,29
		c-4,14-14,24-23,24c-10,0-21,3-25,7s-41,8-82,8c-72,1-76,0-92-27c-9-15-28-30-43-33c-15-4-30-13-33-21s-14-14-25-14s-23-4-26-10
		c-3-5-15-10-27-10c-13,0-18-5-15-14s-4-21-19-30c-13-9-24-25-24-36c0-10-8-21-18-24c-9-3-28-24-42-46c-13-21-42-51-63-65
		c-33-21-50-25-117-25c-64,0-81-3-89-17c-8-15-13-15-37-4c-21,9-25,14-15,21c20,12-38,40-82,40c-18,0-42,7-53,15c-10,8-26,15-34,15
		c-20,0-151,63-210,100c-25,15-61,31-80,35s-58,25-86,46c-51,37-79,42-48,8c9-10,13-23,9-28c-10-17-23-13-21,7c1,11-5,16-17,14
		c-10-2-38,7-62,19c-47,24-71,63-60,98c4,12,2,21-4,21s-11,7-11,15s5,15,11,15c14,0,3,70-19,119c-9,20-19,77-23,126
		c-8,109-18,167-30,180c-5,5-9,21-9,36c0,37-21,52-54,39c-14-5-26-14-26-20c0-5-5-10-10-10c-27,0,40,79,68,80c8,0,12,9,10,23
		c-3,23-23,26-80,12c-38-10-90,29-81,62c9,38-36,116-61,107c-7-3-19,2-26,11c-7,8-25,15-41,15c-25,0-29-4-29-29c0-21,9-36,35-55
		c29-23,34-32,34-69c1-89,2-98,16-87c9,8,14,6,19-6c9-23,8-24-18-24c-39,0-40-36-2-105c18-33,36-78,39-100s8-47,12-57
		c5-11-2-21-22-32c-69-37-75-38-100-15c-19,19-23,32-23,81c0,48-5,66-25,93c-28,36-83,51-119,32c-16-8-18-6-12,8c3,10,1,24-5,31
		c-13,16-64,19-54,4c13-20-24-9-39,12c-14,19-16,19-22,5c-8-21-24-22-24-3s-99,33-110,16c-6-9-11-6-20,10c-13,25-8,36,12,24
		c15-9,88-13,88-5c0,4-11,33-25,66l-24,60l34,18c43,22,46,40,5,25c-45-15-64-4-56,34c3,17,1,37-5,44c-9,11-5,16,15,24
		c29,11,34,28,11,36c-23,9-1,31,38,40c31,6,31,7,8,15c-15,6-21,14-17,24c3,8,9,21,12,29c3,9-2,17-15,21c-30,9-77,69-126,157
		c-5,10-17,18-27,18c-9,0-26,12-38,28c-19,23-21,35-16,84c6,61,1,68-54,68c-20,0-29,6-34,23c-10,36-7,38,27,17c17-11,38-20,45-20
		s24-12,37-26c15-16,31-24,40-20c17,6,20,22,5,31c-14,9-12,62,3,68c7,3,5,6-5,6c-26,1-39,34-32,85c6,38,4,46-10,46c-10,0-16,8-16,24
		c0,13-7,26-15,30c-8,3-15,17-15,31c0,18-5,25-18,25c-25,0-34,10-22,25c6,7-1,22-20,45c-23,27-28,40-23,64c3,17,10,37,16,44
		c7,9,4,12-12,12c-13,0-21-6-21-16c0-12-6-15-25-10c-20,5-26,2-31-19c-5-22-11-25-38-23c-21,2-33,9-37,23s-13,19-30,18
		c-20-3-24,2-26,23c-1,19,2,23,10,15c13-13,54-15,62-2c9,15-37,41-72,41c-25,0-33,4-33,18c0,20-29,52-47,52c-6,0-16,7-23,15
		c-9,11-22,14-41,10c-20-5-33-1-48,14c-12,12-30,21-40,21c-11,0-23,5-26,10c-3,6-17,10-30,10c-18,0-26-7-31-24c-7-30-29-40-54-26
		c-44,24-49,83-9,93c21,6,21,6,2,31c-22,31-29,32-36,6c-3-12-14-20-26-20c-30,0-36-24-15-60c21-35,11-63-25-68c-30-5-38,25-17,61
		c9,16,15,30,14,31c-2,1-15,7-31,14c-18,8-29,22-33,41c-3,15-24,50-45,77c-22,27-47,66-57,87c-12,25-27,41-50,49c-21,8-31,17-27,26
		c3,7,5,19,5,25s10,1,23-11c28-26,37-20,37,25c0,23,5,33,16,33c20,0,13,24-8,28C5459,10240,5449,10236,5445,10230z M5954,9715
		c-4-8-11-15-16-15c-6,0-5,6,2,15c7,8,14,15,16,15S5957,9723,5954,9715z M5749,9413c-13-16-27-32-31-37c-5-6-8,0-8,11
		c0,25,25,53,47,53C5770,9440,5769,9434,5749,9413z"/>
	<path d="M7011,8927c-6-6-11-21-11-34s-4-23-9-23c-4,0-8-10-7-22c1-13,8-23,16-23c9,0,14-8,12-18c-4-21,86-109,108-105
		c24,5,24,45,1,60c-22,13-28,43-11,53s11,25-13,36c-13,6-30,26-37,45C7045,8933,7028,8944,7011,8927z"/>
	<path d="M6817,8823c-4-3-7-15-7-25c0-26,24-17,28,10C6841,8829,6830,8837,6817,8823z"/>
	<path d="M6720,8382c0-5-11-14-25-20c-29-13-33-32-7-32c17,0,62,38,62,53c0,4-7,7-15,7S6720,8386,6720,8382z"/>
	<path d="M6868,8373c-10-2-18-9-18-14s-10-9-22-8c-35,3-58,0-58-8c0-13,89-46,105-39c10,3,15-1,15-13c0-10,7-24,15-31
		c13-11,15-8,15,19c0,17-5,31-11,31s-9,14-7,32C6905,8374,6898,8381,6868,8373z"/>
	<path d="M7440,7779c0-9,7-22,15-29s15-23,15-36c0-30,43-55,62-36c10,10,1,24-40,65C7459,7776,7440,7789,7440,7779z"/>
	<path d="M5188,5369c-30-22-38-45-13-35c22,8,18-12-4-24c-25-13-34-13-26,0c3,6,0,10-8,10s-48-30-89-67c-41-38-97-84-124-103l-49-35
		l-5-155c-3-86-11-168-18-183c-7-16-12-43-12-61c0-19-7-40-17-47c-9-8-42-50-74-94s-67-88-76-98c-29-30-84-54-141-61
		c-92-12-100-18-95-69c5-37,2-48-16-63c-14-13-21-30-21-56c0-21-4-38-10-38c-5,0-10-9-10-20c0-12-9-30-19-41c-14-15-20-39-23-89
		c-3-59-8-74-35-108c-18-22-35-53-39-68c-13-56-87-165-156-232c-39-37-77-79-86-94c-9-16-20-28-25-28s-30-18-57-41
		c-30-25-72-48-111-60c-34-11-83-33-108-49c-24-17-49-30-55-30c-12,0-66-50-66-62c0-4,8-8,18-8c15-1,15-2-2-15c-11-8-26-15-33-15
		c-18,0-121-78-133-100c-5-10-27-20-49-24c-39-6-83-44-95-84c-8-23-94-78-116-74c-9,1-23-4-30-13c-7-8-26-15-42-15
		c-30,0-134-56-203-110c-22-17-53-41-70-54c-16-13-46-31-65-41s-52-33-73-51c-31-29-45-34-86-34c-35,0-51,4-55,15c-5,14-11,13-45-5
		c-22-11-51-20-63-20c-43,0-63-11-88-48c-33-49-64-77-127-113c-57-33-61-40-39-59c22-17,8-40-24-40c-19,0-31-6-35-18
		c-3-11-16-24-29-30c-28-12-85-83-79-98c8-22-16-64-36-64c-34,0-91-32-91-51c0-11-9-19-22-21c-15-2-24-11-26-25s-10-23-22-23
		c-10,0-20-7-24-15c-3-8-13-15-23-15c-10-1-29-9-41-20c-24-19-24-20-7-70c9-27,15-55,13-62c-3-7-10,9-17,34c-21,76-66,73-119-6
		l-30-45l21-15c21-15,21-15-7-4c-25,11-30,10-46-10c-10-12-23-22-28-22s-16-7-23-16c-11-14-9-19,14-36c15-11,27-24,27-29s-9,0-21,12
		c-11,11-26,18-32,16c-14-4-16-70-3-106c13-37-13-15-30,26l-15,34l-19-23c-16-20-17-25-4-39c20-22,18-27-10-22c-31,6-66-13-66-37
		c0-10-6-25-13-32s-19-29-27-48s-17-37-22-40c-4-4-11-20-14-38c-8-41,14-51,59-27c18,9,42,15,52,13c14-3,4-10-32-22
		c-41-14-53-22-54-39s-2-18-6-5c-3,12-14,18-32,18c-56,0-85-19-115-73l-28-52l41,39l40,39l10-24c8-22,5-25-24-34c-44-13-59-30-20-21
		c17,3,46,9,65,12s42,8,50,11s49,7,90,9c69,4,73,3,56-11c-13-10-41-15-82-15c-34,0-78-7-97-15c-20-8-48-15-61-15c-33,0-76-39-77-70
		c-1-14,6-42,15-63c15-33,19-37,44-31c15,4,36,15,48,25c11,11,33,19,50,19l29-1l-30-15c-39-21-55-42-55-72c0-19,3-22,13-13
		c10,8,17,7,25-1c9-9,15-7,26,8c14,18,15,18,21,1c8-19-10-47-30-47c-8,0-15,5-17,11c-2,7-9,5-17-5c-30-36,94-107,138-79
		c11,7,27,6,53-3c20-7,70-15,110-19c40-3,99-8,131-11c55-5,57-4,57,19c0,62,92,78,163,28c55-38,81-67,68-76c-16-9-13-25,4-25
		c8,0,15-9,15-19c0-15,9-20,48-23c29-3,52,0,60,7c11,10,23,10,49,2c30-9,37-8,48,6c11,16,15,16,51,1c51-21,72-41,90-83s18-39-8-43
		c-22-3-22-5,13-42c36-39,36-39,104-37c38,1,84,9,103,17s63,14,98,14c55,0,64-3,64-18c0-42,21-53,109-55c69-1,85,2,96,16
		c11,15,13,16,19,2c6-17,41-20,51-5c3,6,21,10,38,10c50,0,98,17,115,41c12,17,22,20,48,16c21-4,37-1,44,8c6,8,25,17,42,20
		c17,4,32,15,35,24c2,10,20,24,39,31c25,10,33,18,29,29c-4,9-9,28-12,42c-4,23-1,27,26,32c35,7,217,130,231,157c6,10,10,30,10,45
		c0,60,123,126,243,130c59,2,71,6,92,29c28,30,34,76,10,76c-9,0-18,7-22,16c-3,8-17,20-30,25c-24,9-24,10-9,32c9,12,20,31,25,42
		c5,12,17,27,26,35c28,23,75,97,75,119c0,11,8,24,18,30c14,8,15,13,5,30c-7,12-13,29-13,38c1,28,38,105,65,133c13,14,39,41,58,60
		c34,35,77,93,77,104c0,3-15,10-32,15l-33,9l37,1c34,1,38,4,43,34c6,29,7,91,4,199c-1,26,9,53,29,87c17,27,32,66,34,87
		c3,33,13,46,78,103c59,52,75,71,73,91c-1,14,1,17,4,8c2-10,9-18,15-18c15,0,178,93,178,102c0,4,6,5,13,3c6-3,45,11,85,30
		c153,73,265,110,367,120c33,3,80,11,103,17c34,9,46,8,51-1c10-16,107-61,132-61c23,0,25,13,4,30c-17,14-21,90-5,90c6,0,11-8,12-17
		c1-10,2-27,3-38s3-26,4-32c2-19,42-15,68,5c19,15,53,87,53,113c0,13-97,59-158,75c-40,11-64,12-91,4c-45-12-51-12-51,0
		c0,6,13,10,28,10c38,0,46,10,25,32c-21,24-30,179-13,247c18,75,55,105,177,145c29,10,59,26,66,36s31,26,54,35s45,26,51,41
		c7,13,16,24,22,24c5,0,10,9,10,21c0,11,11,35,24,52c40,54,107,197,101,216c-4,13,7,29,35,55c40,36,64,44,75,26c11-17,23-2,18,23
		c-5,27,8,45,100,134c47,47,57,62,57,90c0,26,10,45,43,81c65,70,187,222,187,233c0,5-14,9-30,9c-36,0-50,27-50,95c0,37-3,44-24,49
		c-59,15-72,68-31,122c14,18,25,37,25,43s5,11,10,11c6,0,10-7,10-15s7-15,15-15s15,5,15,10c0,6,5,10,11,10c16,0,38,31,39,52
		c0,10,15,28,34,40c23,15,36,32,39,53c6,37,4,39-22,24c-14-10-17-17-10-26c8-9,5-14-13-18c-13-4-29-5-34-3s-23-9-39-24
		c-16-16-39-28-50-28c-11-1-31-7-45-15s-36-14-49-15c-47,0,4,35,69,48c66,14,84,33,54,58c-18,14-17,15,9,9c23-5,30-2,34,15
		c3,11,9,20,14,20c12,0,11,27-1,35c-6,4-17,1-25-5c-12-10-15-9-15,9c0,11,6,21,13,22c6,0-1,5-18,10c-22,6-33,4-47-8
		c-17-15-18-14-18,15c0,35-19,43-27,12c-6-22-14-25-29-10c-6,6-15,3-26-9c-14-16-14-22-3-31c9-8,15-8,20,0c9,15,25,12,25-5
		c0-8-4-15-10-15c-5,0-7-7-4-15c4-9,0-15-9-15c-8,0-17,6-20,13c-3,8-13,4-31-12c-28-26-37-86-13-94c6-2-2-11-20-20
		c-40-21-65-22-35-1c25,17,29,52,7,60c-22,9-18,24,5,24c11,0,24,8,27,18c4,9,16,25,28,35c20,18,19,18-19,13c-21-3-44-13-51-23
		c-12-16-14-15-13,15c1,28,4,32,28,32c30,0,90,45,90,68c0,9,7,11,20,7c14-5,20-2,20,9c0,26-36,19-73-14c-19-16-37-30-41-30
		c-15,0-4,50,17,73c56,65,62,76,58,109c-5,49-12,54-27,19c-10-25-18-31-32-27c-42,14-98-127-61-150c13-8-36-54-58-54
		c-7,0-13-11-13-24s-7-30-16-37c-13-11-17-10-25,4c-14,25-26,21-63-18c-19-19-43-35-54-35c-39,0-73-23-79-52c-4-20-15-31-39-40
		c-19-7-34-18-34-25s-4-13-10-13c-5,0-10,5-10,10c0,6-11,15-25,20c-13,5-32,24-41,42s-26,39-36,46c-13,9-16,18-10,25
		c10,13,9,84-2,94c-12,12-6,23,12,23c15,0,19,8,20,45c0,30-5,48-15,53c-8,5-15,13-15,18c-3,27-12,44-24,44c-8,0-14-5-14-12
		c0-6-3-8-6-5c-4,3-16,0-28-8c-26-19-66-19-66-1c0,8-16,23-35,35c-20,11-38,29-41,38c-3,10-10,26-15,36c-6,11-6,17,1,17
		c5,0,10,12,10,28c0,15,9,38,19,51c24,31,100,40,154,18c44-19,49-14,7,8c-20,10-58,15-122,15C5230,5389,5211,5386,5188,5369z
		 M2079,2131c7-5,12-14,9-21c-2-7-10-4-22,9C2047,2140,2054,2147,2079,2131z M1500,1568c0-13-43-6-47,8c-2,7,6,10,22,7
		C1489,1580,1500,1573,1500,1568z M3914,1175c-10-8-25-15-31-15c-7,0-13-7-13-15s-8-15-17-15c-14,1-10,8,15,30c18,17,40,30,49,30
		C3932,1190,3931,1188,3914,1175z M2379,661c8-15,7-20-7-23c-14-4-18,0-16,16C2360,688,2364,689,2379,661z M2388,571
		c4-27-12-21-29,10c-9,18-8,20,8,17C2377,596,2386,584,2388,571z"/>
	<path d="M1982,474c-14-10-22-26-22-45c0-16-5-29-12-29s3-15,21-33c29-31,31-36,20-60c-7-15-18-27-26-27s-13-13-13-39
		c0-37-1-39-39-45c-43-7-53-22-45-66c6-26,3-31-30-47c-32-15-37-21-34-48c3-25,8-31,32-33c19-2,32,2,38,12c5,8,15,13,23,9
		c10-3,29,9,50,31c31,33,38,36,69,30c26-4,42-1,63,13c30,21,105,43,147,43c17,0,26,5,26,16c0,12,6,15,21,11c16-4,19-3,11,5
		s-7,15,4,25c21,21,17,42-9,48c-13,4-27,5-33,4c-5-1-16-1-24,0c-11,1-12,3-2,9c8,5-6,13-38,22c-27,7-50,17-50,22c0,15,30,21,45,8
		c18-15,88-4,82,13c-2,6-19,19-38,30c-41,22-69,53-69,77c0,30-35,51-92,55C2020,488,1997,485,1982,474z"/>
</g>
</svg>
