<svg version="1.1" id="Layer_1" xmlns="http://www.w3.org/2000/svg" xmlns:xlink="http://www.w3.org/1999/xlink" x="0px" y="0px"
	 width="1024px" height="1024px" viewBox="0 0 1024 1024" style="enable-background:new 0 0 1024 1024;" xml:space="preserve">
<g transform="translate(0.000000,1024.000000) scale(0.100000,-0.100000)">
	<path d="M2442,9265c-51-10-71-20-103-51l-40-39l-148-3c-124-3-149-1-160,12c-18,22-25,21-212-20l-164-36l-90-89
		c-79-78-95-89-125-89c-61,0-63-5-55-127c7-100,5-119-20-218c-37-147-107-254-215-328c-25-17-75-57-112-90l-68-59v-100
		c0-59-7-125-16-161c-17-65-13-124,11-167c12-22,11-27-7-47c-29-31-33-88-10-154l19-55l-66-67c-46-46-72-82-84-114
		c-32-91-31-95,81-244c84-111,102-142,102-171c0-19,7-58,16-88c8-29,13-62,10-74s-3-38,1-59c4-28,13-42,34-53c28-14,29-16,29-96
		c0-102-24-188-54-188c-10,0-28,8-38,17c-36,32-73,4-124-95c-11-21,14-90,35-97c48-15,50-52,6-99c-20-22-25-38-25-80
		c0-46-4-56-32-83c-24-23-46-33-83-38c-28-4-67-19-89-33c-37-25-38-28-34-74c5-52-1-62-45-73c-20-5-26-12-22-23c3-9-13-34-44-67
		c-58-61-70-94-47-127c29-42,15-109-33-152c-14-13-21-31-21-57c0-60-19-72-109-65c-42,4-96,3-121-1l-45-8l-12-80
		c-15-98-36-408-38-570c-1-75-11-167-25-246l-23-126l21-45c18-36,22-62,22-139c0-93,1-96,30-124c39-37,41-80,4-89l-25-7l4-152
		c2-84,7-162,12-174c5-18,4-23-8-23c-28,0-41-38-28-82c7-22,9-52,6-68c-4-18,0-40,10-60c13-25,15-46,9-98c-3-37-11-73-18-81
		c-10-13-67-173-63-178c2-1,97,2,212,8c116,5,266,6,335,3c95-5,144-3,205,10c142,28,393,22,535-14c19-5,70-12,112-15
		c43-4,89-10,102-13c62-17,433-347,468-416c11-22,38-62,59-87c24-28,39-57,39-73s17-47,45-82c25-31,53-73,61-93c20-51,92-86,176-86
		c51,0,62,3,77,24l18,24l6-24c5-17-1-31-19-50c-25-26-26-27-77-13c-29,8-54,14-57,14s-2-42,3-93c7-77,18-117,68-247
		c69-176,142-323,179-356c30-28,227-186,243-196c7-3,38-18,70-33c51-23,66-26,130-21c39,3,144,10,232,15c218,12,357,30,376,47
		c9,8,37,14,70,14c50,0,57,3,77,30c19,26,29,30,67,30c43,0,45-1,39-25c-5-20-2-25,19-30c15-4,37,0,56,9c24,13,31,23,31,46
		c0,36,4,36,55,5c22-14,52-25,66-25c41,0,122,30,144,54c18,19,32,21,168,24c127,3,156,6,212,28l66,24l39-20c52-26,80-25,121,5
		c19,13,44,30,57,36c12,7,22,19,22,28c0,18-61,122-96,164c-13,16-24,35-24,43c0,23,74-19,88-50c6-14,16-26,22-26s22-12,35-26
		c22-23,27-25,42-13c15,13,16,11,9-14c-6-27,6-57,24-57c15,0,70,64,70,81c0,31,12,49,31,49c10,0,19,6,20,13c0,6,2,24,3,38
		c1,15,14,43,30,63c15,20,40,65,56,99c15,34,37,70,48,81c25,22,43,100,35,149c-4,27,0,42,16,63c11,15,21,41,21,59s9,54,21,79
		c22,51,21,55-30,104l-23,23l22,24c18,19,22,32,17,59c-8,49,13,74,66,78c39,3,44,7,67,49c44,81,109,156,165,190c29,18,70,54,90,81
		c30,38,43,48,63,46c21-3,26,3,36,37s18,42,54,55c30,12,47,26,60,50c14,29,25,36,65,45c50,10,76,37,77,79c0,11,10,51,22,88l22,69
		l39-7c39-6,41-5,126,78c133,129,140,135,152,118c5-8,13-31,19-50c15-56,49-70,172-70h104l22,53c12,29,22,61,22,71c0,34,23,96,35,96
		c7,0,15-13,18-30c7-34,85-89,125-90c13,0,37-9,53-21c24-17,29-28,29-62c1-30,8-50,25-69c21-24,32-28,79-28c53,0,55-1,66-35
		c7-21,9-56,5-87c-5-41-2-63,13-98c33-76,48-84,145-77c120,8,132,15,154,83c9,31,24,58,33,61c57,18,70,27,84,64c19,47,20,98,4,133
		c-15,34-1,49,114,128c47,32,92,66,98,74c7,8,23,14,36,14c16,0,24,6,24,17c0,24-80,143-96,143c-17,0-19,20-1,20c6,0,23,18,35,39
		c13,20,62,77,109,125l84,88l-12,48c-16,61-8,80,83,220c63,95,68,108,63,142c-5,28,0,49,18,89c20,41,23,57,16,77c-5,14-7,45-3,69
		c4,26,2,48-5,57c-8,10-6,17,8,30c15,13,24,15,46,6c15-6,29-9,29-8c1,2,17,22,35,46c28,37,32,47,26,81s-4,39,17,45c13,3,46,6,73,6
		c69,1,144,42,168,93c12,23,28,39,44,43c38,10,56,63,63,194c6,86,13,127,29,163c12,26,25,69,28,96c5,46,4,49-18,53l-24,3l25,20
		c14,11,44,40,67,63c35,37,53,46,109,59c42,10,77,25,95,42c26,23,31,36,40,115c5,49,12,93,15,97c3,5-4,21-15,35c-23,29-27,64-11,94
		c6,12,7,28,1,43c-8,20-5,29,12,45c31,27,62,42,90,42c27,0,67,38,67,64c0,10,6,48,14,85c8,36,24,116,36,176c12,61,30,124,40,140
		c11,17,37,60,59,96c22,37,59,89,81,117c33,43,40,59,40,96c0,40,3,45,29,54c23,8,30,18,36,49c11,68,119,163,159,141
		c50-28,72-27,142,9c38,19,89,54,114,77c25,24,57,46,71,49c14,4,50,18,81,31c49,22,58,30,73,69c9,25,18,59,18,77c2,27-3,35-30,49
		c-42,21-48,39-23,66c27,29,41,106,45,253c3,117,2,123-19,133c-11,6-34,24-51,39c-16,15-61,44-99,64c-64,35-74,37-125,31
		c-49-5-59-4-80,16c-20,19-22,28-17,68l6,46l-37,12c-32,10-43,9-73-7c-36-18-38-18-67,0c-17,10-34,28-38,39c-3,11-24,34-46,51
		l-39,32v78c0,63-3,81-17,88c-14,9-14,11,5,21c27,14,32,81,6,81c-8,0-12,5-9,10c4,6,1,18-6,26c-9,11-9,18-1,26c14,14,16,58,4,58
		c-5,0-17-9-27-20c-25-28-51-25-72,8c-30,48-65,81-99,92c-25,8-41,25-65,66c-21,37-43,61-69,74c-46,23-51,31-61,85
		c-4,22-13,61-20,87c-9,36-10,57-2,83c10,31,9,35-7,35c-11,0-36-27-67-72c-53-79-83-96-141-77c-27,9-45,6-110-15
		c-71-25-81-32-137-96c-33-39-65-70-72-70s-17-9-24-21c-7-15-14-18-21-11c-14,14-37,5-71-27c-21-20-26-31-22-52c4-19,1-28-10-33
		c-9-3-23-22-31-42l-15-37l-67,7c-37,4-85,12-107,17c-22,6-64,8-93,5c-53-6-56-5-170,62c-131,77-159,89-323,132
		c-112,29-124,30-345,31c-126,1-242,4-259,8c-35,8-140-9-240-39c-38-11-128-27-199-35c-71-9-134-18-140-21c-76-41-216-142-216-156
		c0-12-8-18-23-18c-18,0-47-29-123-125l-98-124l-46,5c-25,3-72,10-105,15c-40,7-69,7-86,0c-18-6-72-5-170,4c-115,10-170,21-274,53
		c-112,35-133,45-155,73c-65,84-85,99-138,99c-43,0-56,5-94,37c-58,49-227,158-258,166c-14,4-69,12-122,17l-98,9l-174-104
		c-185-112-210-120-285-94c-30,11-34,9-86-40l-54-51h-85h-84l-40,45c-39,45-57,77-111,197c-16,36-38,71-48,76c-10,6-54,51-98,101
		c-83,95-130,133-196,156c-35,13-44,12-73-2c-33-15-34-15-293,86c-143,55-268,100-279,100C2514,9278,2477,9272,2442,9265z"/>
</g>
</svg>
