<svg version="1.1" id="Layer_1" xmlns="http://www.w3.org/2000/svg" xmlns:xlink="http://www.w3.org/1999/xlink" x="0px" y="0px"
	 width="1024px" height="1024px" viewBox="0 0 1024 1024" style="enable-background:new 0 0 1024 1024;" xml:space="preserve">
<g transform="translate(0.000000,1024.000000) scale(0.100000,-0.100000)">
	<path d="M5190,10215c0-24,25-45,54-45c9,0,16,9,16,20c0,13-7,20-20,20c-11,0-23,7-26,15C5205,10249,5190,10243,5190,10215z"/>
	<path d="M5062,10162c-14-14-21-41-26-112c-4-51-5-94-4-96c2-2,14-1,25,2c18,5,20,9,11,28c-7,18-5,30,10,55l20,33l17-26
		c15-22,15-31,5-55c-17-42-10-75,18-79c12-2,47,8,78,22l55,25l10-27c8-22,66-72,84-72c10,0,5,39-6,46c-6,3-9,17-6,30
		c3,20,1,22-14,14c-30-16-39-11-39,20c0,29-1,30-42,24c-54-7-89,14-72,43c6,10,21,22,33,28c32,15,22,35-38,77S5089,10189,5062,10162
		z"/>
	<path d="M4989,9879c-9-18-8-24,4-30c8-5,29-32,46-59c17-28,35-50,39-50c15,0,42,35,42,54c0,22-17,55-43,84
		C5050,9907,5005,9907,4989,9879z"/>
	<path d="M5260,9752c0-16,7-37,15-48c14-18,14-17,15,13c0,17,3,38,6,47c4,12,0,16-15,16C5265,9780,5260,9774,5260,9752z"/>
	<path d="M5000,9561c0-6,5-13,10-16c6-3,10-19,10-35v-29l-42,19c-26,12-65,20-99,20c-46,0-62-5-97-31c-36-26-51-31-98-30
		c-32,0-66,7-79,15c-20,13-24,13-29,1c-3-8-14-15-24-15s-40-14-66-31c-35-24-50-29-59-20c-26,26-63,2-103-65c-21-34-28-4-11,42
		c16,43,16,45-3,64c-11,11-33,20-50,20c-25,0-30-4-30-23c0-14-20-43-55-77c-40-39-55-49-55-36c0,10,11,31,25,48c14,16,25,36,25,43
		c0,14-38,55-49,55c-3,0-13-17-23-38l-16-37l-1,31c-1,30-39,84-60,84c-5,0-16,3-25,6c-12,5-16,0-16-19c0-14-17-45-40-73
		c-46-56-48-64-19-89l20-19l-23-18c-22-17-22-19-5-32c24-19,21-29-7-22c-36,9-47-12-37-72c5-33,17-62,32-78c18-20,20-24,6-18
		c-10,4-46-1-79-11c-46-14-64-16-78-7c-26,16-32,3-11-27c69-97,82-191,27-191c-12,0-32,9-45,21c-12,12-25,18-28,15
		c-14-14,21-59,87-113c53-43,69-62,64-76c-4-12,7-32,35-62c23-25,41-52,41-62c0-11-18,2-53,39c-43,45-61,56-93,60c-21,3-40,4-41,3
		c-2-1,17-17,42-35c25-19,45-40,45-47c0-20-10-16-66,21l-51,35l-12-25c-9-21-17-25-44-22c-25,2-35,10-46,36c-8,17-18,32-23,32
		c-18,0-20-33-4-66c18-38,22-114,6-114c-19,0-50,40-50,64c0,43-9,53-40,48c-29-4-30-6-30-61c1-54,2-57,40-83c22-15,40-35,40-43
		c0-18-12-19-29-2c-10,10-16,7-32-12c-27-33-24-46,18-97c30-35,44-44,69-44c27,0,64-25,64-43c0-4-15-7-34-7c-22,0-36-6-40-16
		c-5-13-11-12-37,10c-17,15-44,33-59,41l-28,15l-7-63c-5-47-3-69,9-92c9-16,16-37,16-46c0-8,6-24,14-34c13-19,15-18,55,8l42,28
		l19-23l18-23l31,29c29,27,31,28,31,9c0-25-18-41-83-73s-72-50-20-50c37,0,121-42,137-69c10-16,2-14-44,10c-34,18-45,20-67,10
		c-20-9-23-14-13-26c10-11,8-21-9-48l-21-34l60-29c33-16,60-33,60-37c0-14-30-19-58-9c-63,24-81,24-108-3c-28-28-28-47,3-55
		c11-3,34-22,52-42c31-35,31-37,10-43c-14-5-28,0-43,14c-12,12-33,21-47,21c-21,0-27-9-46-68c-11-37-20-68-19-70c2-1,17,3,35,9
		c72,25,81-31,13-81c-23-17-43-38-43-48c-1-9-2-21-4-27c-1-5-3-14-3-19c-1-5-11-1-22,9c-16,15-30,17-80,12c-34-4-70-11-80-17
		c-24-13-26-55-4-64c32-12,208-6,234,9c34,19,68,18,110-5l35-19l-60-1c-34,0-65-4-71-10c-5-5-34-14-64-20c-29-6-56-12-59-15
		c-14-14,59-91,117-123c77-42,94-39,147,30c22,29,91,106,153,172c61,65,112,123,112,127c0,5-19,13-42,19c-66,17-77,23-46,27
		c28,4,93-10,118-26c12-8,7-20-28-72c-27-39-41-68-37-79c4-13-3-24-25-36c-16-10-30-21-30-25c0-3-13-26-30-50c-37-55-40-90-7-81
		c20,5,21,4,8-11c-7-9-24-17-36-17c-30,0-38-23-14-38c10-7,19-16,19-20c0-5-25-26-55-47c-52-35-68-55-45-55c21,0,9-34-25-71
		c-46-51-46-69,1-69c36,0,36,0,29-32c-5-18-7-58-6-89c1-41-3-61-17-80c-55-70-85-163-63-198c7-11,11-10,19,5c20,36,25,3,8-51
		s-17-56,3-89c27-44,26-72-3-99c-24-23-31-55-44-203c-6-65-12-89-34-120c-51-73-31-152,32-134c88,25,123,76,80,115
		c-19,17-19,18,0,44c19,28,60,175,60,219c0,63,36,130,84,157c16,9,14,18-28,104c-35,72-46,106-46,143c0,47,0,47,29,42
		c26-6,31-1,66,56c21,35,54,72,76,87c21,14,39,29,39,33c0,3,16,25,36,48c25,30,43,42,62,42h26l-24-17c-14-9-31-25-39-36
		c-7-10-42-51-76-90c-72-80-106-142-112-201c-5-48,19-102,57-125c19-11,22-11,13-1c-17,19-16,45,2,80c17,33,36,38,55,15
		c22-27,29-16,14,21c-8,20-13,39-10,42c12,11,42-29,60-78c10-27,21-50,26-50c12,0,42,90,37,111c-3,10-1,19,4,19s9,46,9,103
		c1,101,1,102,19,80l19-23l18,27c24,37,30,13,10-38c-9-23-14-49-11-60c10-30,114-118,153-129c102-28,76-50-32-27
		c-116,24-134,23-142-8c-3-14-1-61,5-105c10-63,9-84-1-102c-19-35-12-47,59-118c36-36,71-81,78-100s16-43,20-53c6-14-3-28-37-60
		c-50-47-98-127-98-164c0-29-21-72-64-133c-18-25-41-75-50-112c-17-62-17-69-2-114c23-67,21-84-8-84c-31,0-56,34-56,77
		c0,45-14,41-34-8c-16-38-15-43,4-87c12-26,41-67,65-92c47-48,65-84,65-129c0-26,16-51,32-51c15,0,8,37-17,94c-32,73-32,89,6,120
		c35,29,51,32,68,12c7-8,27-17,45-20c25-5,46-21,81-64c55-66,90-92,126-92c25,0,27,4,32,57c5,47,2,64-15,95c-31,55-13,68,41,32
		c29-19,45-24,52-17c8,8,21-1,46-28c28-31,38-37,49-28s19,8,33-5c24-21,46-13,134,52c52,38,80,51,119,56l50,7l-7,55l-7,56l29-6
		c46-9,246-12,278-3c26,6,32,4,42-18c16-35-13-51-63-35c-42,14-93,5-75-13c30-30-2-67-40-46c-17,9-22,5-40-36c-11-26-18-53-15-61
		c3-7-17-46-44-86c-39-58-50-81-50-113c0-23-9-58-20-79l-19-39l32-37c47-56,97-143,118-205c27-83,36-95,69-95c35,0,34,2,16-41
		c-13-30-12-37,4-69c34-67,46-68,74-7c14,30,35,62,46,72c19,17,21,17,39,1c19-17,21-17,49,15l30,34l23-48l23-47l-32-45
		c-33-47-38-64-23-80c17-18-7-51-53-76l-46-24v-81c0-99,8-109,80-99c27,4,50,4,50,2c0-3-25-29-55-58c-70-66-99-112-92-147
		c9-50,77-197,99-215c18-15,32-18,77-12l54,7l-22-31c-63-87-106-71-175,66c-15,29-29,53-32,53c-12,0-64-35-64-42c0-5,16-40,35-78
		s35-79,35-90c0-18-3-19-22-9c-13,7-51,40-86,73l-63,60l-108-37l-108-38l-59,20c-72,26-71,26-78-2c-4-17-19-27-59-40
		c-75-24-80-23-72,13c6,29,5,30-30,30c-25,0-42,7-55,22c-77,89-88,98-122,97c-64-2-80-12-93-57c-16-53-32-73-52-65c-13,5-14,3-4-16
		c7-12,23-26,36-31c12-5,40-30,61-55c22-25,54-55,72-66c28-18,32-26,32-62c0-38-5-46-53-88c-29-26-70-56-92-67s-52-33-67-49
		c-27-28-63-101-55-110c3-2,23,5,46,16c52,27,78,27,87-1c7-21,8-20,17,12c15,60,56,92,134,105c29,5,50,2,73-10c37-19,59-60,42-77
		c-18-18-15-34,14-78c16-24,31-37,40-33c23,8,16-10-16-45c-16-18-30-44-30-58c0-39,28-84,52-84c19,0,20-2,6-17c-8-10-21-38-29-63
		c-7-25-34-85-59-135c-40-79-51-93-91-115c-26-14-67-44-91-66c-44-41-57-46-146-59c-34-6-50-15-80-52c-20-24-52-53-70-65
		c-30-19-34-19-51-4c-25,23-50,20-61-8c-10-27-40-50-80-61c-27-8-60-33-60-47c0-4,11-8,25-8c38,0,75-21,91-51c17-34,12-49-26-71
		c-30-17-39-41-19-54c6-3,16-1,22,5c12,12,58,14,106,5c25-5,29-9,20-20c-6-8-24-14-39-14c-14,0-29-3-33-6c-11-11,15-52,40-63
		c35-16,48-14,89,14c20,14,47,25,60,25s31,11,41,25c52,74,47,71,97,57c35-9,51-9,71,0c24,11,29,9,51-20c18-23,34-32,55-32
		c24,0,29-4,29-23c0-13-9-32-20-42c-25-22-25-37-2-58s51-21,76-2c11,8,33,15,49,15s47,10,69,22c36,21,41,21,66,7c15-8,40-38,57-67
		c16-28,50-67,73-84c107-80,102-78,166-78c83,1,111,16,154,79l37,55l91,22c100,24,139,41,168,73c18,20,18,25,4,113
		c-15,91-15,94,8,161c22,64,22,71,8,99c-16,30-14,45,5,34c20-13,23-72,5-131c-12-43-15-80-11-138c3-43,8-81,11-84c6-6,45,22,110,79
		c36,31,38,36,25,55c-17,28-6,39,25,25c24-11,24-12,10-41c-8-17-47-65-86-108s-80-98-92-122c-13-27-39-58-66-78c-25-18-68-53-95-77
		c-47-41-51-48-62-111c-14-80-33-106-63-87c-17,10-30,8-81-14l-61-25l-52,25c-46,23-64,26-181,27c-102,2-150-2-223-19
		c-104-23-121-36-122-94c0-21-7-56-16-78c-19-47-51-60-98-41c-65,26-64,27-81-33c-12-40-14-72-10-112l7-55l-71-71
		c-39-39-71-77-71-83c0-19-42-52-91-73c-52-23-79-54-79-93c0-17-13-37-40-62c-22-19-40-44-40-54c0-26-27-54-118-120
		c-60-45-78-54-92-45c-20,12-67-8-111-49c-22-20-29-36-29-63c0-20,4-36,9-36c27,0,71,25,91,51c19,26,27,30,52,25
		c48-9,106-57,130-106c11-25,22-46,23-48c2-2,23,11,49,28c47,32,59,62,31,78c-14,7-13,13,4,53c11,24,21,52,21,62c0,29,24,14,30-19
		l5-29l13,31c14,33,80,68,108,57c9-3,14,1,14,13c0,29,27,98,39,102c6,2,18-4,27-13c9-8,24-13,33-10c9,2,55,13,103,24
		c85,18,87,18,130-1s43-19,60,1c19,24,38,27,38,8c0-23,33-45,80-52c72-11,80-15,98-53c19-40,36-47,88-37c32,6,34,8,34,45
		c0,41,10,56,64,93c32,22,33,50,4,70l-23,15l27,12c22,10,25,16,18,35c-6,16-2,36,15,73c19,41,30,52,62,62c21,7,56,25,78,40
		c24,17,65,32,105,39c36,7,82,19,102,28l38,16l92-46c51-25,112-57,134-71c40-25,42-25,47-6c4,17,14,20,55,20c73,0,150-17,179-40
		c25-20,27-20,57-2c43,25,45,54,5,73c-18,7-35,20-37,28c-4,11,4,13,38,8c27-3,51-1,64,8c30,18,149,28,179,14c23-10,35-6,106,36
		c45,26,81,52,81,56c0,5-18,25-40,45c-73,68-25,53,56-17c74-64,92-73,109-59c23,19,151-5,186-35l29-23l33,33c39,39,89,55,171,55
		c33,0,85,5,117,12c55,11,59,10,197-37l140-49l40,36c39,35,57,43,155,68c28,8,68,29,95,52c45,38,49,39,101,33c30-4,60-9,68-12
		c10-4,13,7,13,47c0,43,5,56,28,79c15,15,50,35,77,45c108,38,136,55,151,93c13,29,13,45,5,79c-15,59-15,62,15,89c23,22,25,25,9,31
		c-27,11-186-3-234-20c-24-9-54-16-67-16c-19,0-22,5-21,27c2,24-5,32-45,53l-47,25l-29-35l-29-34l-28,18l-27,18l38,26l39,26l-44,8
		c-34,6-61,3-109-12c-69-22-113-17-159,15c-34,24-28,38,9,19c69-36,86-36,124,0c39,37,107,56,200,56c47,0,55,3,82,34
		c29,33,62,139,48,153c-3,4-23-2-45-11c-33-15-41-16-60-5c-11,8-21,16-21,19s39,25,86,48c80,40,88,42,104,27c24-22,59-11,107,31
		c34,30,36,33,16,34c-27,0-27,2-8,39c14,27,13,29-8,35c-12,3-35,6-51,6c-24,0-27,2-16,15c7,9,29,15,53,15c38,0,39,1,24,18
		c-20,22-21,32-4,32c6,0,24-14,38-32l26-32l40,32c41,32,102,102,120,137c6,11,14,49,18,85c7,76,29,147,62,209c17,32,23,60,23,105
		c0,68-15,173-32,226c-12,37-145,183-188,205c-56,29-455,78-518,64c-46-10-61-27-73-80c-13-56-53-109-82-109c-13,0-43,14-67,30
		c-25,17-64,42-87,58c-23,15-43,32-43,38c0,19,98,142,137,170c74,54,76,66,37,200c-53,183-107,264-223,333c-39,23-91,66-119,97
		l-50,57l-71-19c-58-14-76-16-89-6c-48,34-74,24-83-32c-9-55-19-55-19,1c0,72,39,100,105,74c12-5,45-1,85,10c36,11,71,19,79,19
		c7,0,36-25,64-55c50-55,50-55,109-55c33,0,68-5,79-11c20-10,20-10,3,23c-9,18-48,82-86,142c-98,151-120,203-116,268
		c3,48,6,54,35,69c30,15,31,17,15,31c-9,9-32,23-49,32c-18,9-33,20-33,24c0,5-22,33-48,63c-27,29-54,70-61,89c-6,19-22,51-35,70
		s-26,44-30,55c-3,11-39,44-80,74c-55,41-101,64-180,91c-119,41-159,66-164,101c-2,13-22,43-43,68c-45,51-69,120-69,201
		c0,45-6,65-26,95c-14,21-35,63-46,94c-31,82-71,287-70,356c3,122-80,276-176,330c-18,10-47,34-63,53c-27,30-33,33-54,24
		c-20-9-23-9-18,3c3,8,11,15,19,15c21,0,17,19-20,85c-35,63-66,83-131,84c-38,1-171,81-203,122c-21,26-29,29-82,29c-51,0-61-3-79-26
		c-12-15-21-33-21-40c0-18-73-64-101-64c-12,0-38,10-58,22c-19,12-45,21-57,20c-27-4-217,34-272,54c-23,9-40,20-36,25
		c10,16,94,9,144-12l48-21l30,22c17,12,50,25,75,27c40,5,47,9,52,33c8,35,68,106,108,126c26,14,36,14,69,3c31-10,43-10,64,1
		c32,17,104,79,104,89c0,4-27,19-59,33l-60,26l-3,59l-3,58l-36,3c-34,3-81-17-196-84c-47-27-50-11-8,39c55,66,84,79,180,81
		c73,1,86,4,124,31c65,45,131,126,131,162c0,17,6,36,14,42s17,32,20,56c6,36,16,52,52,83c54,48,116,148,112,182c-1,14,17,63,40,110
		c40,77,42,88,36,137c-5,45-2,61,23,115c17,35,60,104,97,155c36,51,66,101,66,113s-7,52-15,89c-17,72-34,95-109,145
		c-45,30-76,33-111,10c-21-14-30-14-54-4s-35,8-68-8l-39-20l-142,23l-143,23l-57-23l-57-23l-65,25c-118,46-125,47-174,33
		c-25-7-46-17-46-22c0-4-12-14-27-20c-16-7-36-18-45-26c-12-10-18-11-18-4c0,21-29,13-86-25c-47-31-67-38-120-41c-36-3-61-8-58-14
		c3-5,3-20,0-33c-14-54-186-107-231-71c-17,13-18,17-5,26c8,5,34,7,57,4c40-6,42-5,67,34c14,23,31,44,39,49c15,10,77,94,77,105
		c0,5-14,1-31-7c-19-10-41-14-59-10c-24,5-38-2-94-50c-59-50-66-53-66-33c0,54,75,128,130,128c14,0,49,14,79,30c30,17,56,30,59,30
		c2,0,2-13-1-30c-12-55,10-39,64,48c67,108,68,111,35,84c-23-17-31-19-52-10c-17,8-31,8-48,0c-18-8-37-6-87,12c-66,24-144,66-121,66
		c8,0,41-7,75-16c83-22,117-10,117,41c0,19-4,35-10,35c-5,0-10,5-10,10c0,6,4,10,10,10c17,0,107,69,124,95c9,14,60,57,113,97
		c64,48,110,93,137,131c30,42,62,71,119,107c113,73,146,134,109,204c-28,53-28,72,3,112c14,18,29,44,35,58c8,21,6,27-11,37
		c-16,8-25,7-40-7c-18-16-20-16-37-1C5112,9572,5000,9578,5000,9561z M4370,8003c-30-53-153-213-159-208c-5,5,113,188,143,223
		C4385,8053,4394,8044,4370,8003z M4185,6613c9-21,31-50,50-66c39-32,44-52,16-67c-33-17-40-12-47,38c-4,26-15,64-25,84
		c-20,39-22,48-14,48C4168,6650,4177,6633,4185,6613z M5780,6077c0-2-10-12-22-23l-23-19l19,23C5772,6079,5780,6085,5780,6077z"/>
	<path d="M3128,9359c-44-59-168-157-231-182c-85-34-94-51-62-110c30-58,11-65-35-14l-30,32l6-27c8-34-26-57-47-32c-7,9-22,20-33,24
		c-18,6-25-1-48-48c-34-67-38-128-8-137c15-5,20-15,20-42c0-32-2-35-25-31c-32,7-31,1,3-32c19-18,45-30,74-34c25-4,53-13,63-20
		c22-16,14-46-13-46c-18,0-122-98-122-115c1-6,17-28,36-50l35-40l17,25c23,35,74,86,92,92c12,4,13,9,3,27c-30,49-5,73,47,46
		c31-16,32-16,26,3c-4,12,1,25,13,36c16,14,23,15,39,5c28-18,47-6,72,46c14,30,27,44,36,41c28-11,37,33,20,95c-15,53-15,61-1,82
		c8,13,13,32,9,41c-5,12,0,19,14,23c17,4,20,11,15,34c-4,24,3,37,45,85c45,51,49,58,36,72c-9,9-13,24-10,36c18,65,18,95,0,120
		C3160,9397,3155,9396,3128,9359z"/>
	<path d="M2531,8381c-20-15-29-17-49-8c-18,8-25,8-32-3c-4-7-17-11-29-7c-17,4-25-3-42-35c-20-40-20-41-2-51c30-17,83-77,83-95
		c-1-9-7-28-15-42c-12-22-11-27,2-42c15-16,15-20-2-38c-14-15-16-29-11-62c4-24,2-62-5-89c-10-38-10-62,0-118l13-71h33
		c18,0,40-3,49-6c13-5,14-1,2,33c-36,103-36,97,0,144l33,44l-24,41l-25,42l25,16c21,14,23,19,14,45c-8,23-7,35,5,53
		c9,13,25,50,36,83c15,44,17,61,8,72s-5,20,15,41c36,37,34,47-12,60C2554,8403,2560,8403,2531,8381z"/>
	<path d="M3091,8369c-23-30-23-31-6-63c14-25,15-37,7-52c-9-16-7-28,9-53c22-37,18-51-10-34c-11,7-23,7-33,2c-12-7-28,5-68,51
		c-29,33-56,57-61,54c-17-10-9-40,16-64c28-26,34-56,10-46c-11,4-15-2-15-22c0-54-15-56-48-5c-28,43-32,45-32,23c0-15,5-31,12-38
		c9-9,7-12-10-12c-23,0-30-14-12-25c5-3,13-20,18-37c6-26,15-33,52-44c25-8,45-14,46-14c0,0-1,13-4,29c-5,33,12,48,33,31
		c8-6,19-9,25-5s10-4,10-19c0-16,6-26,14-26c19,0,73-46,65-55c-4-3-18,0-33,6c-62,29-55-44,11-101c18-17,38-30,43-30c6,0,10-7,10-15
		s4-15,9-15s25,7,44,15c20,8,46,15,58,15c18,0,21-5,17-35c-2-19-3-35-1-35c1,0,14,21,27,48l24,47l13-27c11-25,16-27,51-22
		c21,4,38,4,38,0c0-3-18-17-39-31c-26-17-41-36-45-56c-3-16-9-42-12-59c-10-48,18-37,80,32c56,61,65,81,46,93c-16,10-4,22,27,28
		c26,5,63,50,63,75c0,18-52,20-97,5c-43-15-47-14-84,6c-25,15-47,20-61,16c-17-6-20-4-15,9c5,11-2,25-18,40c-14,13-28,38-31,57
		c-4,19-11,40-17,47c-7,9-6,20,3,36c8,16,11,54,9,114l-4,91l-50,51c-27,27-52,50-55,49C3117,8399,3104,8385,3091,8369z"/>
	<path d="M3080,7623l-30-28l40-41c35-38,40-40,53-25c24,28,27,50,9,61c-15,8-15,11-2,20s12,12-4,25C3119,7655,3115,7654,3080,7623z"
		/>
	<path d="M2371,7573c-29-35-41-73-23-73c15,0,72,66,72,82C2420,7614,2401,7610,2371,7573z"/>
	<path d="M2970,7172c-27-24-41-44-39-55c3-16,10-13,45,17c38,32,63,76,44,76C3016,7210,2993,7193,2970,7172z"/>
	<path d="M3213,7150c-13-5-23-18-23-29c0-17-4-19-23-12c-21,8-23,7-20-14c3-12,0-26-6-29c-17-11-13-26,7-26c9,0,39-13,66-29
		c46-27,52-28,77-16c29,15,39,11,39-16c0-10-19-28-46-44c-42-25-75-68-62-81c4-3,24,4,47,15c50,26,61,26,61,2c0-13-21-30-69-55
		c-76-40-93-43-111-21c-33,40-67,2-36-40c14-19,15-19,50-2c20,9,53,17,74,17c54,0,107,17,141,45c36,31,41,31,41,0c0-33,18-32,60,6
		c20,17,27,28,17,25c-15-5-18-1-15,17c2,15,10,22,25,21c16,0,23,7,27,30c9,41-25,71-106,93c-54,15-64,22-100,72
		C3268,7162,3258,7168,3213,7150z"/>
	<path d="M2750,7016c-51-14-60-39-22-63c21-15,22-14,22,8c0,13,12,33,28,46c15,12,25,22,22,22C2797,7028,2775,7023,2750,7016z"/>
	<path d="M3415,6496c-89-83-90-84-71-104c18-21,18-21-7-27c-38-10-59-40-61-84c-1-41,24-81,51-81c16,0,186,344,181,367
		C3506,6575,3468,6546,3415,6496z"/>
	<path d="M3185,6516c-16-21-25-44-23-58c3-19,8-14,32,30C3227,6552,3223,6565,3185,6516z"/>
	<path d="M3172,6304c-24-19-52-34-62-34c-38,0-68-22-74-53c-4-18-2-33,5-37c7-5,4-21-11-49c-39-77-20-81,44-8c46,52,62,64,73,56
		c17-15,16-29-3-50c-15-17-15-20,5-45c27-35,27-50-4-70c-37-24-31-73,8-58c8,3,19,16,25,28c7,15,26,29,54,37c71,23,75,45,33,175
		c-19,59-35,113-35,120C3230,6340,3215,6337,3172,6304z"/>
	<path d="M3761,6051l-33-50l11-67c23-128,50-159,124-137c26,7,33,14,35,41c2,20-1,32-8,32c-8,0-10,11-6,35c5,27,3,37-9,41
		c-10,4-15,19-15,43c0,41-30,105-51,109C3801,6099,3780,6078,3761,6051z"/>
	<path d="M2926,5514l-90-46l-53,15l-54,14l-33-72c-36-77-58-98-91-84c-28,11-89,11-119-1c-30-11-39-30-57-115c-14-69-24-91-51-122
		c-11-12-23-37-27-55c-6-30-13-35-81-61c-60-24-78-27-93-17c-15,9-23,8-38-6c-27-25-24-39,17-64c24-16,44-21,65-16c22,4,29,2,29-9
		c0-8-4-15-9-15s-27-17-48-37l-38-37l30-6c24-4,29-10,27-28c-2-12,1-22,6-22c11,0,67-118,60-126c-4-3-32,15-63,41
		c-64,51-92,65-136,65c-42,0-36,18,13,40l42,18l-39,8c-38,7-41,5-88-46l-49-53l71-65c70-63,121-133,121-165c0-13,10-17,44-17
		c38,0,51-6,94-45c27-25,55-45,60-45c6,0,24,8,40,17c28,16,30,16,58-6l29-23l5,23c7,28,30,37,31,12c0-10,6,0,13,22c7,23,21,44,34,51
		c35,17,36,21,13,53c-26,36-20,78,14,91c13,5,35,25,50,44c15,20,32,36,38,36s32-22,57-48c34-36,49-60,53-89c4-22,20-58,37-81
		c26-37,33-41,49-30c41,25,71-39,52-108c-11-41,0-59,29-48c8,3,40,8,71,11c47,5,59,10,67,28c9,20,16,22,59,17c30-3,59-14,76-28
		c16-13,33-24,39-24s16-7,22-16c11-14,18-10,62,29c48,44,49,46,49,103c0,58,0,58,40,76c47,21,86,23,104,6c28-28,92,94,67,127
		c-10,14-16,15-39,4c-15-7-29-10-32-7s-1,27,5,53c12,53,5,109-16,126c-19,16-18,33,5,53c18,17,21,16,59-19c47-41,59-80,42-131
		c-9-27-9-42,0-65c17-41,28-26,39,55c9,64,8,74-21,154c-39,109-56,126-114,119c-25-2-61-16-82-29c-61-40-72-42-72-9
		c0,22,15,41,71,91c62,55,70,66,64,89c-9,37-24,49-17,14l5-28l-31,29c-17,15-33,40-37,55c-4,14-29,55-56,91c-38,48-49,70-44,87
		c4,19,0,25-21,33c-25,10-25,12-19,74c7,60,6,65-17,80c-42,27-108,46-186,51C3016,5560,3014,5560,2926,5514z"/>
</g>
</svg>
