<svg version="1.1" id="Layer_1" xmlns="http://www.w3.org/2000/svg" xmlns:xlink="http://www.w3.org/1999/xlink" x="0px" y="0px"
	 width="1024px" height="1024px" viewBox="0 0 1024 1024" style="enable-background:new 0 0 1024 1024;" xml:space="preserve">
<g transform="translate(0.000000,1024.000000) scale(0.100000,-0.100000)">
	<path d="M9767,8370l-55-50l-25,20c-25,20-26,20-36,2c-26-48-43-197-36-309c5-92,4-117-10-142c-10-21-14-43-9-65c9-49-3-76-40-91
		c-37-16-52-31-57-59c-5-24-97-65-358-160c-101-37-195-74-208-83c-32-21-71-89-93-164c-11-34-33-79-50-100c-16-21-30-40-30-43
		s18-9,40-12c43-7,51-26,28-64c-10-16-9-23,11-43l22-25l-33-31c-18-18-75-53-125-77c-73-36-105-46-151-48c-43-2-74-11-120-36
		c-37-19-59-37-55-44c3-6,19-28,35-48c21-27,27-44,23-59c-11-33-204-228-265-267c-30-20-86-65-125-102c-70-67-186-143-238-156
		c-18-4-34-1-45,8c-9,9-35,18-56,21c-22,4-46,13-54,21c-13,13-13,18,2,41c11,17,21,60,26,113c10,107,15,120,49,129
		c55,13,54,50-4,168c-77,156-96,165-162,74c-54-76-84-86-98-32c-4,19,0,35,16,56c25,34,49,116,49,168c0,21-8,47-20,62
		c-11,14-20,38-20,54c0,28-3,30-92,57c-51,15-106,32-122,36c-33,11-60,0-77-32c-9-17-8-23,6-31c17-9,17-11-3-26c-17-12-23-29-25-73
		c-2-32-7-61-11-65c-10-10-39,10-52,35c-10,20-13,19-49-29l-39-51v-138c-1-125,1-141,20-167c60-81,75-165,50-283
		c-23-107-61-178-110-203c-35-18-41-19-65-6c-47,27-83,100-91,187c-4,42-17,110-30,150c-19,62-21,80-12,115c6,23,13,85,16,137
		c3,68,12,115,30,166c14,39,26,77,26,84c0,23-29-10-61-71c-33-61-65-97-76-85c-16,15,28,174,74,266c26,52,48,97,50,99c1,2,9-2,17-8
		c10-8,16-9,21-1c9,14,45,13,45-2c0-7,10-1,23,13c12,14,51,48,86,74c70,52,66,51,179,19c19-5,22-3,22,21c0,23,3,25,23,19
		c63-21,84-1,33,34c-30,21-37,22-78,11c-38-11-48-10-71,6c-19,12-27,26-27,45v28l-81-31c-49-19-99-47-125-70c-41-36-48-39-87-33
		c-23,3-79,25-125,48c-70,36-86,40-102,30c-31-19-40-14-40,20c0,24,10,41,47,77c27,25,42,46,35,49c-32,10-91-26-183-114
		c-54-52-103-94-110-94s-28-14-46-32c-29-28-41-33-98-36l-65-4v31c0,37-4,37-72,11c-50-19-128-27-128-14c0,3,23,32,52,63
		c28,31,66,79,84,106c44,68,77,97,159,138l70,35l-47,7c-27,4-63,4-82,1c-19-4-45-1-60,5c-21,10-33,9-63-5c-37-16-39-16-108,13
		c-44,19-74,26-80,20c-16-16-24-10-40,27c-11,28-19,35-32,30c-10-4-49-11-88-16c-59-7-73-6-88,8c-12,10-42,18-83,20l-65,4l-29,52
		c-50,88-46,85-63,43c-10-23-26-41-42-47c-74-28-1122-43-1470-21c-998,62-1967,243-2867,534c-76,25-138,43-138,40c0-2,11-21,25-41
		c29-43,30-50,9-73c-15-17-15-22,0-65c22-64,20-83-9-110c-17-16-25-34-25-57c0-18-6-40-12-49c-15-18-66-52-90-61c-23-8-58,28-58,59
		c0,20,6,23,41,26c56,4,74,31,40,59l-24,20l23,24c23,24,23,25,4,46c-10,11-60,40-110,64s-104,55-121,69l-31,26l-11-28
		c-9-21-9-50-2-113c6-46,11-109,11-140c0-37,5-59,13-62s6-9-8-20c-20-15-20-16-1-47c18-32,18-32-3-61c-27-36-26-43,4-63
		c35-23,31-34-11-38c-37-3-37-4-59-78c-12-41-35-102-52-135s-45-97-62-142c-18-44-54-118-82-164c-107-178-116-206-139-418
		c-4-41-5-91-3-112c9-61-25-164-70-215c-54-62-58-97-17-186l33-72l-18-111c-21-128-17-160,27-242c28-52,30-62,20-97
		c-13-49-1-82,33-98c20-9,28-8,44,6c17,16,19,16,25-6c3-13,6-38,6-57c0-25-4-32-14-28c-11,5-17-5-22-38c-10-72,1-107,51-154
		c25-23,45-45,45-49s-11-25-25-46l-24-39l28-56c16-31,32-75,36-98c3-23,19-60,35-81c16-22,40-69,55-106c23-58,25-74,19-135l-6-70
		l33-20c19-12,60-28,92-37c50-15,65-25,119-86c36-41,81-79,109-93c32-17,49-32,51-47c2-12,19-32,38-45c70-44,86-62,119-128
		c21-44,33-85,34-116c1-28,7-51,15-53c6-3,12-16,12-30c0-29-17-24,265-71c149-25,212-39,218-50c11-20,78-63,311-197
		c105-61,220-132,256-158s83-57,105-68c52-25,195-58,315-71c177-19,370-34,376-29c3,3,6,30,7,58l2,53l150-7c83-3,166-10,186-15
		c44-10,149-110,164-155c7-20,29-43,67-68c31-21,68-53,83-72c32-43,75-147,75-184c0-33,40-92,93-139c50-44,166-111,205-119
		c30-6,37-2,100,64c41,44,86,79,114,92c43,19,54,20,115,9c64-10,71-15,124-69c30-32,100-127,154-211c58-90,120-175,151-204
		c58-55,75-90,123-242c36-117,44-125,141-146c36-8,79-22,95-31c17-9,46-16,66-16c21,0,47-8,62-20c26-21,63-26,85-11c11,7,11,9-2,14
		c-9,4-16,18-16,33s-12,62-27,105c-24,73-25,82-13,120c13,39,13,42-10,59l-24,18l32,30c36,34,38,39,17,69c-14,20-14,23,5,36
		c11,7,27,30,35,51c9,20,20,34,26,30c14-9,48,24,65,64c10,26,18,32,32,28c33-11,52,3,46,32l-5,27l73,1c46,0,84,6,104,17
		c74,39,164,169,143,208c-12,24-6,35,31,54c28,15,29,14,40-20c6-19,16-37,21-40c5-4,42,10,81,30c40,19,105,42,143,50
		c66,13,75,13,135-5c36-11,83-20,105-20c34,0,44,5,68,35c32,40,48,42,112,15c26-11,49-20,51-20c3,0-7,22-23,49c-31,56-28,66,11,51
		c34-13,56-63,56-130c0-37,5-55,20-70c25-25,37-25,75,0c22,14,39,18,71,13c35-5,44-2,58,18c23,33,20,46-15,78c-23,22-29,34-24,50
		c10,31,33,26,74-18c20-21,59-51,88-65s56-34,62-43c9-17,11-17,30,1c41,37,23,69-51,91c-35,10-44,17-46,39c-4,34,13,56,44,56
		c32,0,31,17-2,32c-20,9-30,9-45,0c-33-21-59-15-59,13s-12,32-30,10c-21-26-78-19-111,14c-16,16-29,33-29,38c0,4,19,16,43,26
		c43,17,44,17,109-7l65-25l58,40c49,33,65,39,112,39c61,0,109,17,137,49c24,27,30,27,44-4c10-23,17-25,72-25h60v30c0,28,2,30,40,30
		c22,0,60,5,85,12c38,10,59,10,130-5c80-16,89-21,142-72l56-54l69,35c53,27,72,42,80,64c10,29,12,30,77,30c72,0,83-7,124-72
		c10-16,41-40,70-54c63-32,113-69,126-93c6-10,15-58,20-107c21-172,22-180,32-161c13,23,46,21,54-3c3-11,1-35-6-53
		c-10-29-9-38,10-75c34-67,56-84,96-76c28,5,35,3,35-9c0-9,15-28,34-42c21-16,33-32,29-41c-3-8,6-26,20-39c13-14,27-38,30-54
		c4-19,14-32,29-36c12-4,45-29,72-55c28-26,61-53,74-59c17-9,21-18,17-32c-6-19-5-20,17-7c22,12,28,14,55,17c41,4,62,150,52,366
		c-3,61-9,87-25,110c-12,17-24,44-28,60c-4,17-45,92-92,168c-46,76-84,140-84,143c0,2,9,4,20,4c17,0,9,14-44,84
		c-77,101-133,198-156,274c-15,47-20,54-27,37c-4-11-8-44-8-72c0-29-2-53-5-53c-9,0-30,86-30,119c0,16,7,34,15,41c18,15,19,69,4,124
		c-13,49,6,194,33,248c10,21,18,51,18,67s5,33,10,36c6,4,9,19,8,33c-2,16,2,26,8,25c7-1,20,7,29,17c10,11,22,20,27,20
		c19,0,106,83,112,106c4,13,11,24,16,24c14,0,60,72,60,94c0,11,9,29,20,41c12,12,37,55,58,96c30,61,46,80,87,106
		c76,47,105,78,105,109c0,32,41,106,83,151c17,18,52,40,79,49c50,16,85,51,69,67c-6,6-22-1-42-17c-37-31-74-32-74-1c0,14,8,21,28,23
		c22,3,27,8,27,32c0,23-6,30-32,40c-31,11-32,12-11,20c12,5,27,18,33,29c12,24,31,26,61,9c18-11,23-10,44,15c33,37,49,100,34,129
		c-11,21-12,21-24-9c-13-30-13-30-63-20c-42,9-54,8-76-6c-14-9-27-17-30-17c-8,0-28,101-22,108c4,3,20-2,36-11c29-17,29-17,74,16
		l44,34l-19,29c-12,19-17,38-14,55c8,36-26,57-90,56c-28,0-61,5-74,12c-22,12-23,14-7,23c10,6,29,8,42,5c24-4,23-3-8,24l-33,29
		l23,17l23,16l-52,35c-42,28-49,36-36,43c9,5,26,5,41-1c41-15,42,8,2,49c-39,40-44,51-22,51c26,0,28,20,3,31c-18,8-33,33-56,91
		c-17,43-31,89-31,101c0,27,43,93,70,107c26,14,38-11,22-43c-18-38-10-103,17-130c12-14,21-30,17-35c-3-5,12-26,34-47
		c21-21,41-48,44-61c5-19,13-24,36-24c35,0,38-13,14-64c-16-33-12-79,5-60c5,5,18,67,30,137c27,162,22,190-48,240
		c-38,28-50,43-55,72c-4,20-6,38-4,40s26-2,54-8c56-13,83-31,85-56c2-35,89,302,89,345c0,9-12,14-35,14h-35v49c0,42,7,60,49,123
		c67,99,100,128,211,188c112,61,146,91,162,142c13,43,15,44,39,22c16-14,20-12,50,26c22,27,36,37,43,30c17-17,24-12,65,40
		c40,50,44,73,14,84c-22,9-28-1-14-18c18-22,5-52-29-66c-41-17-72-7-94,31c-10,17-34,37-52,45c-31,13-34,18-34,59c0,24,5,47,11,51
		c8,4,2,12-15,21c-32,17-33,38-6,151c23,95,42,137,71,155c11,6,37,35,58,62c31,41,39,61,43,108c5,67,31,106,49,75
		c18-33,14-37,160,120c37,39,59,71,59,86c0,34-34,71-80,90c-25,10-48,28-58,47c-10,18-28,32-45,36c-33,7-50,37-93,162
		c-32,95-76,151-117,151C9830,8420,9803,8403,9767,8370z"/>
	<path d="M9619,6582c-47-20-94-44-105-52c-25-19-54-60-54-77c0-24,27-13,92,35c60,43,166,133,157,132C9707,6619,9666,6602,9619,6582
		z"/>
</g>
</svg>
